<svg width="55" height="55" viewBox="0 0 55 55" fill="none" xmlns="http://www.w3.org/2000/svg">
<path d="M6.11108 7.63886C6.11108 7.63886 6.11108 6.11108 7.63886 6.11108H16.8055C16.8055 6.11108 18.3333 6.11108 18.3333 7.63886V10.6944H6.11108V7.63886Z" fill="#66757F"/>
<path d="M0 15.2777C0 15.2777 0 9.16663 6.11111 9.16663H48.8889C48.8889 9.16663 55 9.16663 55 15.2777V42.7777C55 42.7777 55 48.8888 48.8889 48.8888H6.11111C6.11111 48.8888 0 48.8888 0 42.7777V15.2777Z" fill="#31373D"/>
<path d="M32.0834 44.3056C40.5211 44.3056 47.3612 37.4655 47.3612 29.0278C47.3612 20.5901 40.5211 13.75 32.0834 13.75C23.6458 13.75 16.8057 20.5901 16.8057 29.0278C16.8057 37.4655 23.6458 44.3056 32.0834 44.3056Z" fill="#CCD6DD"/>
<path d="M32.0833 41.25C38.8335 41.25 44.3055 35.7779 44.3055 29.0278C44.3055 22.2776 38.8335 16.8055 32.0833 16.8055C25.3332 16.8055 19.8611 22.2776 19.8611 29.0278C19.8611 35.7779 25.3332 41.25 32.0833 41.25Z" fill="#31373D"/>
<path d="M32.0832 36.6667C36.3021 36.6667 39.7221 33.2466 39.7221 29.0278C39.7221 24.809 36.3021 21.3889 32.0832 21.3889C27.8644 21.3889 24.4443 24.809 24.4443 29.0278C24.4443 33.2466 27.8644 36.6667 32.0832 36.6667Z" fill="#3B88C3"/>
<path d="M49.6528 16.8055C50.9184 16.8055 51.9444 15.7795 51.9444 14.5138C51.9444 13.2482 50.9184 12.2222 49.6528 12.2222C48.3871 12.2222 47.3611 13.2482 47.3611 14.5138C47.3611 15.7795 48.3871 16.8055 49.6528 16.8055Z" fill="white"/>
<path d="M18.3333 14.5138C18.3333 15.1216 18.0919 15.7045 17.6621 16.1343C17.2323 16.5641 16.6494 16.8055 16.0416 16.8055H8.40275C7.79496 16.8055 7.21207 16.5641 6.7823 16.1343C6.35253 15.7045 6.11108 15.1216 6.11108 14.5138C6.11108 13.906 6.35253 13.3232 6.7823 12.8934C7.21207 12.4636 7.79496 12.2222 8.40275 12.2222H16.0416C16.6494 12.2222 17.2323 12.4636 17.6621 12.8934C18.0919 13.3232 18.3333 13.906 18.3333 14.5138Z" fill="#F5F8FA"/>
</svg>
