<svg width="55" height="55" viewBox="0 0 55 55" fill="none" xmlns="http://www.w3.org/2000/svg">
<path d="M42.7779 3.05553C46.8784 1.00525 50.4168 9.16664 47.3612 22.9166C45.6715 30.5204 39.7223 36.6666 33.6112 41.25C27.5001 45.8333 16.8056 39.7222 22.9167 33.6111C29.0279 27.5 35.139 22.9166 38.1945 13.75C40.1868 7.7733 39.7223 4.5833 42.7779 3.05553Z" fill="#FFE8B6"/>
<path d="M47.3611 12.2222C47.3611 16.8056 45.8333 25.9722 41.25 32.0833C36.6667 38.1944 30.5556 39.7222 35.1389 33.6111C39.7222 27.5 42.7778 22.9167 44.3056 16.8056C45.8333 10.6945 47.3611 6.11112 47.3611 12.2222Z" fill="#FFD983"/>
<path d="M33.6112 30.5555C33.1589 31.46 35.3941 24.6996 29.0278 21.3889C25.9967 19.8122 13.7501 22.9166 22.9167 22.9166C27.5001 22.9166 29.0278 25.9722 25.9723 29.0278C25.5698 29.4275 25.2472 29.9004 25.022 30.4211C24.3849 30.9497 23.6883 31.5043 22.9167 32.0833C19.4594 34.676 13.9945 38.5412 7.63894 42.7778C3.05561 45.8333 1.52783 47.3611 1.52783 48.8889C1.52783 53.4722 15.2778 53.4722 22.9167 50.4166C30.5556 47.3611 38.1945 39.7222 38.1945 39.7222L44.3056 33.6111C39.7223 27.5 33.6112 30.5555 33.6112 30.5555Z" fill="#FFCC4D"/>
<path d="M33.6113 30.5556C33.6113 30.5556 36.349 23.3307 29.0279 19.8611C22.8526 16.9339 16.8057 18.3333 12.2224 21.3889C7.63903 24.4444 9.16681 27.5 7.63903 29.0278C6.11126 30.5556 9.16681 32.0833 12.2224 29.0278C15.2779 25.9722 24.9274 21.5493 29.0279 22.9167C33.6113 24.4444 32.0835 27.4985 33.6113 30.5556Z" fill="#FFE8B6"/>
<path d="M39.7222 53.4722H33.6111C30.5555 53.4722 29.0277 55 27.5 55C25.9722 55 24.4444 51.9444 27.5 51.9444C30.5555 51.9444 33.6111 51.9444 35.1389 50.4167C36.6666 48.8889 42.7777 53.4722 39.7222 53.4722Z" fill="#A6D388"/>
<path d="M27.4999 55C28.3437 55 29.0277 54.316 29.0277 53.4722C29.0277 52.6285 28.3437 51.9445 27.4999 51.9445C26.6562 51.9445 25.9722 52.6285 25.9722 53.4722C25.9722 54.316 26.6562 55 27.4999 55Z" fill="#3E721D"/>
<path d="M49.2067 42.7777C49.2067 42.7777 42.7778 53.4722 39.7222 53.4722H33.6111C30.5556 53.4722 33.6111 51.9444 35.1389 50.4166C36.6667 48.8888 42.7778 50.4166 42.7778 41.25C42.7778 36.6666 49.2067 42.7777 49.2067 42.7777Z" fill="#FFCC4D"/>
<path d="M39.7222 29.0278C44.3055 29.0278 51.9444 33.6112 50.4166 42.7778C48.8889 51.9445 42.7778 53.4723 39.7222 53.4723H36.6666C33.6111 53.4723 35.1389 51.9445 36.6666 50.4167C38.1944 48.8889 42.7778 50.4167 42.7778 41.2501C42.7778 36.6667 36.6666 30.5556 33.6111 30.5556C33.6111 30.5556 36.6666 29.0278 39.7222 29.0278Z" fill="#FFE8B6"/>
<path d="M25.9721 32.0834C30.5555 32.0834 33.611 33.6112 30.5555 36.6667C28.1401 39.0821 21.3888 44.3056 15.2777 45.8334C9.16659 47.3612 3.05548 47.3612 7.63882 44.3056C12.2221 41.25 22.556 32.0834 25.9721 32.0834Z" fill="#FFD983"/>
<path d="M3.05561 47.3611C4.58339 47.3611 4.58339 47.3611 4.58339 48.3801C4.58339 49.3976 4.58339 50.4166 3.05561 50.4166C1.52783 50.4166 1.52783 48.3801 1.52783 48.3801C1.52783 48.3801 1.52783 47.3611 3.05561 47.3611Z" fill="#C1694F"/>
</svg>
