<svg width="55" height="55" viewBox="0 0 55 55" fill="none" xmlns="http://www.w3.org/2000/svg">
<path d="M44.2108 41.9238C40.3089 40.564 31.819 41.2683 29.0278 43.9572V25.9722C29.0278 25.567 28.8668 25.1784 28.5803 24.8919C28.2938 24.6054 27.9052 24.4445 27.5 24.4445C27.0948 24.4445 26.7062 24.6054 26.4197 24.8919C26.1332 25.1784 25.9722 25.567 25.9722 25.9722V43.9572C23.1809 41.2683 14.6911 40.564 10.7891 41.9238C9.65706 42.3195 18.8314 55.2903 25.3137 48.8095C25.5704 48.5528 25.7812 48.3053 25.9722 48.0608V53.4722C25.9722 53.8774 26.1332 54.266 26.4197 54.5525C26.7062 54.8391 27.0948 55 27.5 55C27.9052 55 28.2938 54.8391 28.5803 54.5525C28.8668 54.266 29.0278 53.8774 29.0278 53.4722V48.0608C29.2187 48.3053 29.4296 48.5528 29.6862 48.8095C36.1686 55.2903 45.3429 42.3195 44.2108 41.9238V41.9238Z" fill="#77B255"/>
<path d="M19.1919 39.1875C18.2462 38.7811 17.5007 37.9087 17.0866 36.8759L15.1525 31.8251L10.175 29.6969C8.13386 28.82 7.30886 26.7605 8.18275 24.7179L10.2636 19.858L8.1797 14.8637C7.35317 12.8012 8.40886 10.482 10.4714 9.65704L15.4703 7.69996L17.684 2.52996C18.5594 0.488844 20.6189 -0.336156 22.6615 0.537733L27.639 2.67051L32.6303 0.583566C33.6615 0.169539 34.7859 0.1619 35.7316 0.566761C36.6773 0.971622 37.4336 1.81801 37.8476 2.84926L39.794 7.87565L44.8494 10.0405C46.8905 10.9144 47.714 12.9754 46.8432 15.018L44.6264 20.188L46.7118 25.1793C47.5383 27.2418 46.4826 29.5579 44.4201 30.3844L39.4228 32.3415L37.3404 37.2044C36.4665 39.2455 34.404 40.072 32.3629 39.1981L27.309 37.0333L22.3178 39.1172C21.285 39.5312 20.1376 39.5923 19.1919 39.1875V39.1875Z" fill="#CCD6DD"/>
<path d="M44.8494 10.0406L39.794 7.87571L39.71 7.65724C37.319 9.69988 31.7426 14.3092 31.7426 14.3092L31.7533 14.4971C30.5484 13.5248 29.0482 12.9919 27.5 12.9861V2.61099L22.6615 0.53932C20.6189 -0.334569 18.5594 0.490431 17.684 2.53154L15.4703 7.70154L15.3771 7.73821L22.6386 15.0013C21.9991 15.6386 21.492 16.3961 21.1465 17.2301C20.8009 18.0642 20.6237 18.9583 20.625 19.8611H10.2621L8.18275 24.7164C7.30886 26.759 8.13386 28.82 10.175 29.6954L15.1525 31.8252L15.1555 31.8343L22.0244 23.9785C22.6599 24.8322 23.4857 25.526 24.4362 26.0047C25.3867 26.4834 26.4357 26.7338 27.5 26.7361H27.5076C27.5168 29.7596 27.5305 34.7921 27.5259 37.1265L32.3598 39.1982C34.4009 40.0721 36.4634 39.2456 37.3373 37.2045L39.4182 32.3461L31.4859 25.4452C32.3776 24.8123 33.1049 23.9754 33.6072 23.0043C34.1095 22.0332 34.3722 20.956 34.3734 19.8627C34.3734 19.7542 34.3459 19.6533 34.3414 19.5449C37.0944 19.8229 41.9054 20.266 44.7639 20.5257L44.6233 20.1896L46.8416 15.0181C47.714 12.9754 46.889 10.9145 44.8494 10.0406Z" fill="#E1E8ED"/>
<path d="M27.5 27.4999C31.7188 27.4999 35.1389 24.0799 35.1389 19.8611C35.1389 15.6422 31.7188 12.2222 27.5 12.2222C23.2811 12.2222 19.8611 15.6422 19.8611 19.8611C19.8611 24.0799 23.2811 27.4999 27.5 27.4999Z" fill="#F4900C"/>
</svg>
