<svg width="55" height="55" viewBox="0 0 55 55" fill="none" xmlns="http://www.w3.org/2000/svg">
<path d="M50.4167 50.4166C50.4167 51.227 50.0948 52.0042 49.5218 52.5773C48.9487 53.1503 48.1715 53.4722 47.3612 53.4722H7.63893C6.82855 53.4722 6.05135 53.1503 5.47833 52.5773C4.9053 52.0042 4.58337 51.227 4.58337 50.4166L6.11115 32.0833H48.8889L50.4167 50.4166Z" fill="#DD2E44"/>
<path d="M19.8612 53.4722C18.6512 50.6076 17.1876 48.4443 14.6407 46.3436C17.3144 44.1146 21.5799 37.9408 22.6616 33.6753C23.7432 29.4097 26.863 46.0885 25.7813 49.9079C24.6996 53.7274 19.8612 53.4722 19.8612 53.4722ZM35.6019 53.4722C36.8103 50.6076 38.2755 48.4443 40.8207 46.3436C38.1471 44.1146 33.8831 37.9408 32.7999 33.6753C31.7198 29.4097 28.5985 46.0885 29.6832 49.9079C30.7649 53.7274 35.6019 53.4722 35.6019 53.4722Z" fill="#EA596E"/>
<path d="M5.69556 37.0685C6.22894 37.6044 6.90939 37.97 7.65071 38.1188C8.39204 38.2677 9.16087 38.1932 9.85982 37.9048C10.5588 37.6163 11.1564 37.1269 11.5769 36.4986C11.9975 35.8702 12.2221 35.1311 12.2222 34.375C12.2222 33.5118 11.9243 32.7235 11.4415 32.0833H6.11111L5.69556 37.0685V37.0685ZM49.3044 37.0685L48.8889 32.0833H43.5585C43.0548 32.7414 42.7806 33.5463 42.7778 34.375C42.7779 35.1311 43.0025 35.8702 43.4231 36.4986C43.8436 37.1269 44.4412 37.6163 45.1402 37.9048C45.8391 38.1932 46.608 38.2677 47.3493 38.1188C48.0906 37.97 48.7711 37.6044 49.3044 37.0685V37.0685Z" fill="#BE1931"/>
<path d="M21.3889 38.1944C23.0765 38.1944 24.4445 36.8264 24.4445 35.1389C24.4445 33.4513 23.0765 32.0833 21.3889 32.0833C19.7014 32.0833 18.3334 33.4513 18.3334 35.1389C18.3334 36.8264 19.7014 38.1944 21.3889 38.1944Z" fill="#BE1931"/>
<path d="M33.6111 38.1944C35.2986 38.1944 36.6667 36.8264 36.6667 35.1389C36.6667 33.4513 35.2986 32.0833 33.6111 32.0833C31.9236 32.0833 30.5555 33.4513 30.5555 35.1389C30.5555 36.8264 31.9236 38.1944 33.6111 38.1944Z" fill="#BE1931"/>
<path d="M15.2777 38.1944C16.9653 38.1944 18.3333 36.8264 18.3333 35.1389C18.3333 33.4513 16.9653 32.0833 15.2777 32.0833C13.5902 32.0833 12.2222 33.4513 12.2222 35.1389C12.2222 36.8264 13.5902 38.1944 15.2777 38.1944Z" fill="#BE1931"/>
<path d="M39.7222 38.1944C41.4097 38.1944 42.7777 36.8264 42.7777 35.1389C42.7777 33.4513 41.4097 32.0833 39.7222 32.0833C38.0346 32.0833 36.6666 33.4513 36.6666 35.1389C36.6666 36.8264 38.0346 38.1944 39.7222 38.1944Z" fill="#BE1931"/>
<path d="M35.1389 53.4722H19.8611C19.8611 53.4722 22.9166 44.3055 22.9166 33.6111H32.0833C32.0833 44.3055 35.1389 53.4722 35.1389 53.4722ZM25.9722 3.05554H29.0278V13.75H25.9722V3.05554Z" fill="black"/>
<path d="M28.7802 0.314691C26.9912 0.0641354 25.9722 0.485802 25.9722 2.16636V3.69414C25.9722 5.37469 27.2937 6.37233 28.9101 5.91094L36.7843 4.53441C39.4044 4.01039 39.1493 2.10066 36.9141 1.65608L28.7802 0.314691Z" fill="#55ACEE"/>
<path d="M27.5 9.16669L27.3763 9.3546C16.7109 25.9432 4.58338 22.9396 4.58338 29.0278V32.8472C4.58242 33.7944 4.93345 34.7082 5.56831 35.4111C6.20318 36.114 7.07658 36.556 8.01897 36.6512C8.96136 36.7464 9.9055 36.488 10.6681 35.9262C11.4307 35.3645 11.9574 34.5394 12.1459 33.6111H18.3334C18.3334 34.4215 18.6553 35.1987 19.2283 35.7717C19.8014 36.3448 20.5785 36.6667 21.3889 36.6667C22.1993 36.6667 22.9765 36.3448 23.5495 35.7717C24.1226 35.1987 24.4445 34.4215 24.4445 33.6111H30.5556C30.5556 34.4215 30.8775 35.1987 31.4506 35.7717C32.0236 36.3448 32.8008 36.6667 33.6112 36.6667C34.4215 36.6667 35.1987 36.3448 35.7718 35.7717C36.3448 35.1987 36.6667 34.4215 36.6667 33.6111H42.8542C43.0427 34.5394 43.5694 35.3645 44.332 35.9262C45.0946 36.488 46.0387 36.7464 46.9811 36.6512C47.9235 36.556 48.7969 36.114 49.4318 35.4111C50.0666 34.7082 50.4177 33.7944 50.4167 32.8472V29.0278C50.4167 22.9167 38.1945 25.9722 27.5 9.16669Z" fill="#CCD6DD"/>
<path d="M27.4205 9.28583L27.3747 9.35458C26.1738 17.7512 16.5168 24.6369 12.2222 27.5V33.6111C12.2222 34.4215 12.5441 35.1987 13.1171 35.7717C13.6901 36.3447 14.4673 36.6667 15.2777 36.6667C16.0881 36.6667 16.8653 36.3447 17.4383 35.7717C18.0114 35.1987 18.3333 34.4215 18.3333 33.6111V27.5C19.8336 25.9997 27.2143 17.131 27.4755 9.57611C27.4602 9.47833 27.4343 9.38361 27.4205 9.28583ZM27.5427 9.89388C27.9949 17.3769 35.1862 26.0196 36.6666 27.5V33.6111C36.6666 34.4215 36.9885 35.1987 37.5616 35.7717C38.1346 36.3447 38.9118 36.6667 39.7222 36.6667C40.5326 36.6667 41.3097 36.3447 41.8828 35.7717C42.4558 35.1987 42.7777 34.4215 42.7777 33.6111V27.5C38.5763 24.6996 29.0995 18.043 27.5427 9.89388V9.89388Z" fill="#F5F8FA"/>
<path d="M27.4754 9.57916C27.3807 12.7508 26.8979 25.0464 24.4443 27.5V33.6111C24.4443 34.4215 24.7663 35.1987 25.3393 35.7717C25.9123 36.3447 26.6895 36.6667 27.4999 36.6667C28.3103 36.6667 29.0875 36.3447 29.6605 35.7717C30.2335 35.1987 30.5554 34.4215 30.5554 33.6111V27.5C28.166 25.1106 27.645 13.3818 27.532 9.84041C27.5152 9.75333 27.4907 9.66777 27.4754 9.57916V9.57916Z" fill="#F5F8FA"/>
</svg>
