<svg width="55" height="55" viewBox="0 0 55 55" fill="none" xmlns="http://www.w3.org/2000/svg">
<g clip-path="url(#clip0)">
<path d="M7.63892 33.4202C7.63892 33.4202 10.0666 42.1698 10.6945 46.3788C11.4034 51.1317 16.1502 54.89 27.5 54.89C38.8499 54.89 43.5967 51.1302 44.3056 46.3788C44.9335 42.1698 47.3611 33.4202 47.3611 33.4202H7.63892Z" fill="#BBDDF5"/>
<path d="M7.78247 33.5637C8.16442 35.4261 8.84275 36.6101 9.8358 35.999C10.8289 35.3879 12.3566 35.7041 11.8891 36.9539C11.4598 38.0997 13.3696 38.6253 14.1808 37.9561C14.9584 37.3159 16.5565 36.6101 16.7108 38.0508C16.8544 39.3876 18.4952 39.7466 19.2408 38.7673C20.0047 37.7651 22.1054 38.1654 22.4873 39.3876C22.8693 40.6098 24.9226 40.4387 25.4955 39.5786C26.0379 38.7643 26.5848 38.2265 27.5 38.2265V38.1944C28.4166 38.1944 28.9621 38.7643 29.5044 39.5786C30.0773 40.4372 32.1307 40.6098 32.5126 39.3876C32.8946 38.1654 34.9952 37.7651 35.7591 38.7673C36.5062 39.7466 38.1455 39.3876 38.2891 38.0508C38.4434 36.6101 40.0415 37.3144 40.8191 37.9561C41.6304 38.6253 43.5401 38.0997 43.1108 36.9539C42.6418 35.7041 44.1711 35.3879 45.1641 35.999C46.1572 36.6101 46.8355 35.4261 47.2175 33.5637H7.78247Z" fill="#662113"/>
<path d="M50.4166 28.9804C50.4166 21.4653 40.1331 15.374 27.4495 15.374C14.7644 15.374 4.48242 21.4653 4.48242 28.9804C4.48242 35.0442 18.2324 38.1944 27.4495 38.1944C36.6666 38.1944 50.4166 35.1389 50.4166 28.9804Z" fill="#C1694F"/>
<path d="M27.4999 54.2361C27.2973 54.2361 27.103 54.1556 26.9597 54.0124C26.8164 53.8691 26.736 53.6748 26.736 53.4722V40.2631C26.736 40.0605 26.8164 39.8662 26.9597 39.7229C27.103 39.5797 27.2973 39.4992 27.4999 39.4992C27.7024 39.4992 27.8967 39.5797 28.04 39.7229C28.1833 39.8662 28.2637 40.0605 28.2637 40.2631V53.4722C28.2637 53.6748 28.1833 53.8691 28.04 54.0124C27.8967 54.1556 27.7024 54.2361 27.4999 54.2361ZM17.2653 52.2989C17.0797 52.2986 16.9005 52.2309 16.7611 52.1084C16.6217 51.9858 16.5316 51.8168 16.5075 51.6328L14.9324 39.4381C14.9068 39.237 14.9618 39.034 15.0855 38.8733C15.2092 38.7127 15.3914 38.6076 15.5924 38.581C15.692 38.5675 15.7933 38.5739 15.8904 38.5999C15.9875 38.6258 16.0785 38.6708 16.158 38.7322C16.2376 38.7936 16.3042 38.8702 16.354 38.9575C16.4037 39.0449 16.4357 39.1412 16.4479 39.241L18.023 51.4357C18.0367 51.5434 18.0273 51.6528 17.9955 51.7566C17.9637 51.8605 17.9102 51.9563 17.8385 52.0379C17.7669 52.1195 17.6788 52.185 17.5799 52.23C17.4811 52.275 17.3739 52.2985 17.2653 52.2989ZM22.1221 53.79C21.9304 53.7899 21.7458 53.7177 21.6048 53.5878C21.4639 53.4579 21.377 53.2798 21.3612 53.0888L20.2796 40.0706C20.2713 39.9706 20.2829 39.8699 20.3136 39.7744C20.3443 39.6788 20.3934 39.5902 20.4584 39.5137C20.5233 39.4372 20.6026 39.3742 20.6919 39.3283C20.7811 39.2824 20.8785 39.2546 20.9785 39.2463C21.0785 39.2381 21.1792 39.2497 21.2748 39.2803C21.3703 39.311 21.4589 39.3602 21.5354 39.4251C21.6119 39.49 21.675 39.5694 21.7208 39.6586C21.7667 39.7479 21.7945 39.8453 21.8028 39.9453L22.8844 52.9635C22.9009 53.1652 22.8366 53.3653 22.7057 53.5197C22.5748 53.6741 22.388 53.7702 22.1862 53.787L22.1221 53.79ZM13.018 49.144C12.8859 49.1438 12.7579 49.0979 12.6557 49.0141C12.5535 48.9303 12.4834 48.8137 12.4574 48.6842L10.1657 37.3206C10.1508 37.2469 10.1505 37.1711 10.1649 37.0973C10.1794 37.0236 10.2082 36.9534 10.2498 36.8909C10.2913 36.8283 10.3449 36.7745 10.4072 36.7326C10.4696 36.6908 10.5397 36.6616 10.6133 36.6468C10.9158 36.5735 11.2244 36.7843 11.2886 37.0945L13.5803 48.4581C13.5973 48.5413 13.5956 48.6273 13.5752 48.7098C13.5548 48.7923 13.5163 48.8691 13.4624 48.9349C13.4086 49.0006 13.3407 49.0534 13.2639 49.0896C13.187 49.1258 13.103 49.1444 13.018 49.144ZM37.6153 52.1263C37.5057 52.1265 37.3973 52.1031 37.2975 52.0578C37.1977 52.0124 37.1088 51.9461 37.0369 51.8633C36.9651 51.7806 36.9118 51.6833 36.8809 51.5782C36.8499 51.473 36.8419 51.3624 36.8575 51.2539L38.5839 39.2318C38.6152 39.0325 38.7232 38.8533 38.8847 38.7323C39.0462 38.6113 39.2485 38.5581 39.4486 38.584C39.5479 38.5983 39.6435 38.6319 39.7298 38.6831C39.8161 38.7343 39.8915 38.8019 39.9516 38.8822C40.0118 38.9625 40.0555 39.0539 40.0804 39.1511C40.1052 39.2483 40.1106 39.3494 40.0964 39.4488L38.37 51.4708C38.3439 51.6525 38.2533 51.8188 38.1147 51.9391C37.9761 52.0595 37.7988 52.1259 37.6153 52.1263ZM32.9678 53.79L32.9036 53.787C32.7019 53.7702 32.515 53.6741 32.3841 53.5197C32.2532 53.3653 32.1889 53.1652 32.2054 52.9635L33.2871 39.9453C33.3207 39.5236 33.7332 39.2211 34.1105 39.2471C34.3123 39.2638 34.4991 39.36 34.63 39.5144C34.761 39.6688 34.8252 39.8688 34.8087 40.0706L33.7271 53.0888C33.7117 53.2797 33.6251 53.4578 33.4844 53.5877C33.3437 53.7176 33.1593 53.7899 32.9678 53.79ZM42.1085 49.2067C42.0241 49.2069 41.9408 49.1884 41.8645 49.1525C41.7881 49.1167 41.7207 49.0644 41.6669 48.9994C41.6132 48.9344 41.5745 48.8584 41.5536 48.7766C41.5327 48.6949 41.5302 48.6096 41.5462 48.5268L43.7432 37.1006C43.7572 37.0267 43.7857 36.9564 43.8269 36.8936C43.8681 36.8307 43.9213 36.7766 43.9835 36.7343C44.0456 36.6921 44.1155 36.6624 44.1891 36.6472C44.2626 36.6319 44.3385 36.6312 44.4124 36.6453C44.4862 36.6593 44.5565 36.6878 44.6194 36.729C44.6822 36.7702 44.7363 36.8234 44.7786 36.8856C44.8209 36.9477 44.8505 37.0176 44.8658 37.0912C44.881 37.1648 44.8817 37.2406 44.8676 37.3145L42.6707 48.7407C42.6461 48.8718 42.5764 48.9901 42.4737 49.0752C42.371 49.1603 42.2418 49.2068 42.1085 49.2067Z" fill="#88C9F9"/>
<path d="M25.8377 -0.0167847C25.8377 -0.0167847 27.4984 1.73099 29.1606 1.76613C32.6256 1.84099 35.8141 3.77516 35.8141 7.12252C35.8141 7.12252 43.8517 7.12252 44.1298 14.2634C44.1298 14.2634 48.186 14.3321 49.1149 21.4011C49.8085 26.6811 44.4735 33.9702 27.4999 33.8953C12.5353 33.8296 4.87962 28.5114 5.8849 21.4042C6.85351 14.5597 12.5368 14.2649 12.5368 14.2649C12.5368 14.2649 11.5652 5.33808 22.5117 5.3396C22.5117 5.3396 23.6209 1.76919 25.8377 -0.0167847Z" fill="#FFE8B6"/>
<path d="M27.3625 16.0478C31.8481 14.355 35.9532 11.2888 35.8157 7.12403C35.8157 5.8132 35.3161 4.72847 34.514 3.8775C35.4964 8.1675 28.9361 13.0442 21.6822 13.8172C12.6057 14.7843 13.6446 9.42945 13.6446 9.42945L13.6339 9.44014C12.2849 11.7868 12.5385 14.2664 12.5385 14.2664C13.9211 17.9071 21.0574 18.4281 27.3625 16.0478Z" fill="#FFCC4D"/>
<path d="M44.1299 14.2648C44.1208 14.0464 44.0841 13.8554 44.0612 13.6507C43.884 12.6164 43.3691 11.3498 42.8787 10.3843C42.5884 9.97941 42.2676 9.62191 41.9162 9.31177C43.6105 16.0737 33.4172 24.2061 23.6898 26.0898C11.0108 28.5434 5.88508 21.4072 5.88508 21.4072C5.36258 25.0968 7.19592 28.2959 11.1544 30.5372C26.779 36.9065 44.2659 21.2254 44.1299 14.2648Z" fill="#FFCC4D"/>
<path d="M13.2749 21.696L11.4706 24.1618C11.2305 24.4879 10.871 24.7056 10.4708 24.7675C10.0706 24.8293 9.66217 24.7302 9.3348 24.4918C9.00874 24.2517 8.79099 23.8922 8.72916 23.492C8.66732 23.0918 8.76642 22.6834 9.0048 22.356L10.8091 19.8902C11.0493 19.5641 11.4087 19.3464 11.8089 19.2845C12.2092 19.2227 12.6176 19.3218 12.9449 19.5602C13.6233 20.0567 13.7715 21.0177 13.2749 21.696Z" fill="#DD2E44"/>
<path d="M22.8172 12.5079L19.8289 11.8678C19.4333 11.782 19.0878 11.5431 18.8679 11.2033C18.648 10.8634 18.5717 10.4503 18.6556 10.0543C18.8313 9.23237 19.6486 8.70376 20.4691 8.88098L23.4574 9.52112C24.2793 9.69681 24.8079 10.5142 24.6307 11.3346C24.5453 11.7304 24.3065 12.0762 23.9665 12.2961C23.6266 12.5161 23.2133 12.5923 22.8172 12.5079Z" fill="#55ACEE"/>
<path d="M25.103 21.6532L27.1089 23.9586C27.6605 24.5927 27.5932 25.5628 26.9592 26.1143C26.653 26.3792 26.2544 26.5122 25.8505 26.4841C25.4466 26.4561 25.0702 26.2693 24.8035 25.9646L22.7976 23.6592C22.5327 23.353 22.3997 22.9544 22.4278 22.5505C22.4558 22.1465 22.6426 21.7701 22.9473 21.5035C23.2535 21.2386 23.6521 21.1056 24.056 21.1337C24.4599 21.1617 24.8363 21.3485 25.103 21.6532Z" fill="#77B255"/>
<path d="M37.2349 17.5679L34.3765 18.6481C33.9973 18.7901 33.5774 18.7763 33.2084 18.6097C32.8394 18.4431 32.5514 18.1372 32.4072 17.7589C32.2652 17.3798 32.279 16.9599 32.4456 16.5909C32.6122 16.2219 32.918 15.9338 33.2963 15.7896L36.1548 14.7095C36.5339 14.5675 36.9539 14.5813 37.3228 14.7479C37.6918 14.9145 37.9799 15.2203 38.1241 15.5986C38.2661 15.9778 38.2523 16.3977 38.0857 16.7667C37.9191 17.1357 37.6132 17.4237 37.2349 17.5679Z" fill="#F4900C"/>
<path d="M46.3925 21.4668L44.8647 24.1129C44.4446 24.8401 43.505 25.0922 42.7778 24.6721C42.4278 24.4686 42.1726 24.1349 42.0678 23.7439C41.9631 23.3529 42.0173 22.9363 42.2186 22.5851L43.7464 19.939C44.1666 19.2118 45.1061 18.9597 45.8334 19.3799C46.5606 19.8 46.8127 20.7381 46.3925 21.4668Z" fill="#AA8DD8"/>
</g>
<defs>
<clipPath id="clip0">
<rect width="55" height="55" fill="white"/>
</clipPath>
</defs>
</svg>
