<svg width="55" height="55" viewBox="0 0 55 55" fill="none" xmlns="http://www.w3.org/2000/svg">
<path d="M20.3164 5.40521C19.5051 -0.820487 11.7196 -1.16424 10.7708 2.15868L9.34541 8.33243L3.17166 9.75785C-0.151255 10.7066 0.194023 18.4922 6.41819 19.3034L11.084 19.913C17.3082 20.7242 21.7372 16.2967 20.9244 10.0726L20.3164 5.40521V5.40521ZM49.3335 34.4192C55.5576 35.2305 55.9014 43.0191 52.58 43.9663L46.4062 45.3917L44.9793 51.567C44.0321 54.8884 36.245 54.5431 35.4337 48.319L34.8257 43.6516C34.0144 37.4274 38.4419 32.9984 44.6661 33.8112L49.3335 34.4192Z" fill="#DD2E44"/>
<path d="M46.5819 34.0603L44.6661 33.8097C38.4419 32.9985 34.0129 37.426 34.8256 43.6502L34.9586 44.6692C37.4366 44.2597 40.2294 42.7808 42.6188 40.3914C44.5897 38.4236 45.9372 36.1778 46.5819 34.0603V34.0603ZM10.5508 19.8428L11.084 19.9131C17.3081 20.7243 21.7372 16.2968 20.9244 10.0727L20.7426 8.68237C18.7305 9.36529 16.6222 10.6746 14.7613 12.537C12.4849 14.8118 11.0381 17.4549 10.5508 19.8428V19.8428Z" fill="#BE1931"/>
<path d="M28.6901 42.7381C37.6771 42.7381 44.9624 35.4527 44.9624 26.4657C44.9624 17.4787 37.6771 10.1934 28.6901 10.1934C19.7031 10.1934 12.4177 17.4787 12.4177 26.4657C12.4177 35.4527 19.7031 42.7381 28.6901 42.7381Z" fill="#DD2E44"/>
<path d="M28.6459 25.9722C29.2417 30.4685 27.6803 36.2695 24.6843 39.8628C25.9677 40.2447 27.3121 40.4449 28.6886 40.4449C29.8054 40.4449 30.8993 40.2997 31.9581 40.0461C32.8182 36.0953 32.3492 30.991 28.6459 25.9722ZM28.6459 25.9722C33.851 26.9424 38.167 30.9925 39.0027 35.8783C41.0187 33.6892 42.276 30.9088 42.5884 27.9492C39.7452 25.0632 35.0992 23.0481 28.6459 25.9722ZM28.6459 25.9722C30.2485 22.5057 35.5346 19.3447 40.6175 19.192C40.0424 18.2429 39.3567 17.3655 38.5749 16.5779C37.4347 15.4428 36.1055 14.5148 34.647 13.8356C31.0215 15.7315 27.8453 19.4074 28.6459 25.9722V25.9722Z" fill="#F5F8FA"/>
<path d="M28.7099 26.0364C24.4169 23.7738 21.7173 18.3364 22.8784 13.7668C21.3625 14.4518 19.9823 15.404 18.8038 16.578C17.9673 17.421 17.2423 18.3678 16.6466 19.3952C18.6128 22.3881 22.3819 25.245 28.7099 26.0364ZM28.5816 26.0364C24.6552 28.4152 19.062 29.6893 14.8958 28.6077C15.26 31.0174 16.254 33.2883 17.7771 35.1909C21.4041 34.1062 25.5153 31.3668 28.5816 26.0364Z" fill="#F5F8FA"/>
</svg>
