<svg width="55" height="55" viewBox="0 0 55 55" fill="none" xmlns="http://www.w3.org/2000/svg">
<path d="M18.0156 9.26141L17.9988 14.3397L26.1694 12.2222L21.6838 9.16669L18.0156 9.26141ZM50.7987 35.8753C50.7987 34.1367 51.9613 32.7113 53.4723 32.4561V14.6438C47.3612 13.174 1.52783 25.63 1.52783 25.63V31.0322C3.91728 31.4814 5.72922 33.5714 5.72922 36.0922C5.72922 38.6131 3.91728 40.7061 1.52783 41.1553V52.9436L53.4723 43.0406V39.296C51.9613 39.0393 50.7987 37.6124 50.7987 35.8753V35.8753Z" fill="#FFAC33"/>
<path d="M23.8105 3.42529L17.9392 9.29654C19.0652 9.55932 19.8612 10.1995 19.8612 10.9496C19.8612 11.935 18.4923 12.7325 16.8056 12.7325C16.0814 12.7325 15.426 12.5797 14.9035 12.3353L1.52783 25.7095C21.6441 21.2621 35.2031 17.6336 53.625 14.6697C46.197 4.76668 28.7635 3.42529 23.8105 3.42529Z" fill="#FFD983"/>
<path d="M30.5556 7.894C30.5556 8.87942 29.1867 9.67692 27.5 9.67692C25.8133 9.67692 24.4444 8.87942 24.4444 7.894C24.4444 6.90858 25.8133 6.11108 27.5 6.11108C29.1867 6.11108 30.5556 6.90858 30.5556 7.894ZM23.0267 17.6641C23.0267 19.1583 20.9504 20.3698 18.3883 20.3698C15.8263 20.3698 13.75 19.1583 13.75 17.6641C13.75 16.1715 15.8263 14.9584 18.3883 14.9584C20.9489 14.96 23.0267 16.1715 23.0267 17.6641V17.6641ZM44.3056 12.76C44.3056 14.4314 41.9818 15.7865 39.1172 15.7865C36.2526 15.7865 33.9289 14.4314 33.9289 12.76C33.9289 11.0886 36.2526 9.73344 39.1172 9.73344C41.9818 9.73344 44.3056 11.0886 44.3056 12.76Z" fill="#FFAC33"/>
<path d="M51.3715 23.8639C51.3715 25.8989 49.8758 27.5474 48.0287 27.5474C46.1816 27.5474 44.6859 25.8989 44.6859 23.8639C44.6859 21.8289 46.1816 20.1804 48.0287 20.1804C49.8758 20.1804 51.3715 21.8289 51.3715 23.8639ZM17.3784 31.2919C17.3784 33.2093 15.9683 34.7631 14.2282 34.7631C12.488 34.7631 11.0779 33.2078 11.0779 31.2919C11.0779 29.3731 12.488 27.8193 14.2282 27.8193C15.9683 27.8193 17.3784 29.3746 17.3784 31.2919ZM43.589 38.9003C42.8205 39.82 41.5189 40.0003 40.6816 39.3006C39.8459 38.6024 39.7925 37.2885 40.564 36.3688C41.3355 35.4444 42.6357 35.2657 43.4714 35.9639C44.3086 36.6636 44.3605 37.976 43.589 38.9003ZM28.794 27.6283C27.7597 28.8674 26.0058 29.1103 24.8798 28.1676C23.7554 27.2281 23.6836 25.4589 24.7209 24.2214C25.7598 22.9778 27.5107 22.7379 28.6351 23.6775C29.7611 24.6186 29.8329 26.3863 28.794 27.6283ZM30.1277 42.929C28.2944 45.3796 25.0036 46.0167 22.7822 44.3544C20.5593 42.6922 20.2415 39.3556 22.0748 36.9065C23.9082 34.4544 27.199 33.8174 29.4204 35.4781C31.6433 37.1403 31.9611 40.4769 30.1277 42.929V42.929Z" fill="#F4900C"/>
</svg>
