<svg width="55" height="55" viewBox="0 0 55 55" fill="none" xmlns="http://www.w3.org/2000/svg">
<path d="M55 48.8889C55 50.5097 54.3562 52.064 53.2101 53.2101C52.064 54.3562 50.5097 55 48.8889 55H6.11111C4.49034 55 2.93596 54.3562 1.7899 53.2101C0.643847 52.064 0 50.5097 0 48.8889V6.11111C0 4.49034 0.643847 2.93596 1.7899 1.7899C2.93596 0.643847 4.49034 0 6.11111 0L48.8889 0C50.5097 0 52.064 0.643847 53.2101 1.7899C54.3562 2.93596 55 4.49034 55 6.11111V48.8889Z" fill="#9266CC"/>
<path d="M40.4312 27.5C44.8434 23.6362 47.4421 19.6808 45.922 17.0087C45.1581 15.6689 43.5891 14.989 41.2592 14.989C39.2762 14.989 36.7355 15.5176 33.9335 16.4465C32.7663 10.6089 30.606 6.30206 27.5001 6.30206C24.3941 6.30206 22.2338 10.6089 21.0666 16.4465C18.2646 15.5176 15.7239 14.989 13.7409 14.989C11.4126 14.989 9.842 15.6689 9.07812 17.0103C7.55798 19.6808 10.1567 23.6362 14.5689 27.5C10.1567 31.3637 7.55798 35.3192 9.07812 37.9912C9.842 39.3311 11.411 40.011 13.7409 40.011C15.7239 40.011 18.2646 39.4823 21.0666 38.5535C22.2338 44.3911 24.3941 48.6979 27.5001 48.6979C30.606 48.6979 32.7663 44.3911 33.9335 38.5535C36.7355 39.4823 39.2762 40.011 41.2592 40.011C43.5876 40.011 45.1581 39.3311 45.922 37.9897C47.4421 35.3191 44.8419 31.3637 40.4312 27.5ZM41.2592 17.6626C42.4845 17.6626 43.3584 17.9132 43.5967 18.3318C44.1269 19.2622 42.4906 22.191 38.3289 25.7782C37.1863 24.8927 36.0106 24.0508 34.8044 23.2543C34.7124 21.8644 34.5702 20.4783 34.3781 19.0987C37.0456 18.179 39.4335 17.6626 41.2592 17.6626ZM29.8635 31.6479C29.0845 32.0908 28.2966 32.5176 27.5001 32.9282C26.7032 32.5182 25.9152 32.0914 25.1366 31.6479C24.3443 31.1949 23.5618 30.7247 22.7899 30.2378C22.7533 29.3562 22.7258 28.4518 22.7258 27.5C22.7258 26.5482 22.7517 25.6437 22.7899 24.7622C23.5385 24.2932 24.3101 23.8226 25.1366 23.3521C25.9156 22.9092 26.7036 22.4823 27.5001 22.0718C28.2853 22.4766 29.0737 22.9014 29.8635 23.3521C30.6901 23.8226 31.4631 24.2932 32.2102 24.7622C32.2469 25.6437 32.2744 26.5482 32.2744 27.5C32.2744 28.4518 32.2484 29.3562 32.2102 30.2378C31.4631 30.7068 30.6901 31.1773 29.8635 31.6479ZM31.9856 33.4996C31.9367 33.9946 31.8787 34.4667 31.8176 34.9342C31.3791 34.7539 30.9314 34.5507 30.4853 34.3505C30.7191 34.2222 30.9513 34.1046 31.1851 33.9717C31.4555 33.8189 31.7183 33.6569 31.9856 33.4996ZM24.5148 34.3505C24.0687 34.5492 23.6195 34.7523 23.1826 34.9342C23.1205 34.4572 23.0645 33.9795 23.0145 33.5011C23.2819 33.6585 23.5462 33.8204 23.8151 33.9732C24.0473 34.1046 24.281 34.2222 24.5148 34.3505ZM20.0659 28.4289C19.6406 28.1257 19.2199 27.816 18.8039 27.5C19.2088 27.1929 19.6259 26.8843 20.0659 26.5711C20.0613 26.8812 20.0521 27.1898 20.0521 27.5C20.0521 27.8101 20.0613 28.1187 20.0659 28.4289ZM23.0145 21.5004C23.0634 21.0054 23.1214 20.5333 23.1826 20.0673C23.621 20.2476 24.0687 20.4508 24.5148 20.651C24.281 20.7793 24.0488 20.8969 23.8151 21.0298C23.5446 21.1811 23.2819 21.343 23.0145 21.5004ZM30.4853 20.6494C30.9314 20.4508 31.3806 20.2476 31.8176 20.0658C31.8771 20.5333 31.9352 21.0054 31.9856 21.5004C31.7183 21.343 31.4539 21.1811 31.1851 21.0283C30.9528 20.8954 30.7191 20.7778 30.4853 20.6494ZM34.9342 26.5711C35.3742 26.8843 35.7913 27.1929 36.1962 27.5C35.7913 27.8071 35.3742 28.1157 34.9342 28.4289C34.9388 28.1187 34.948 27.8101 34.948 27.5C34.948 27.1898 34.9388 26.8812 34.9342 26.5711ZM27.5001 8.97567C28.5787 8.97567 30.3341 11.8907 31.3898 17.3693C30.1217 17.8735 28.8185 18.4586 27.5001 19.0987C26.2256 18.4738 24.9281 17.8969 23.6103 17.3693C24.666 11.8907 26.4214 8.97567 27.5001 8.97567ZM11.4034 18.3333C11.6417 17.9132 12.5171 17.6626 13.7409 17.6626C15.5651 17.6626 17.9545 18.1805 20.622 19.0987C20.4341 20.4416 20.2889 21.8335 20.1958 23.2543C18.9895 24.0508 17.8138 24.8927 16.6712 25.7782C12.5095 22.191 10.8733 19.2622 11.4034 18.3333ZM13.7409 37.3373C12.5156 37.3373 11.6417 37.0868 11.4034 36.6682C10.8733 35.7378 12.5095 32.809 16.6712 29.2218C17.8138 30.1072 18.9895 30.9491 20.1958 31.7457C20.2905 33.1665 20.4341 34.5583 20.622 35.9012C17.9545 36.821 15.5666 37.3373 13.7409 37.3373ZM27.5001 46.0243C26.4214 46.0243 24.666 43.1093 23.6103 37.6307C24.8784 37.1265 26.1816 36.5414 27.5001 35.9012C28.8185 36.5429 30.1217 37.128 31.3898 37.6307C30.3341 43.1093 28.5787 46.0243 27.5001 46.0243ZM43.5967 36.6667C43.3584 37.0868 42.483 37.3373 41.2592 37.3373C39.4351 37.3373 37.0456 36.8194 34.3781 35.9012C34.566 34.5583 34.7112 33.1665 34.8044 31.7457C36.0106 30.9491 37.1863 30.1072 38.3289 29.2218C42.4906 32.809 44.1269 35.7378 43.5967 36.6667Z" fill="white"/>
<path d="M27.5001 25.3397C26.9272 25.3397 26.3777 25.5673 25.9726 25.9725C25.5674 26.3776 25.3398 26.9271 25.3398 27.5C25.3398 28.0729 25.5674 28.6224 25.9726 29.0275C26.3777 29.4327 26.9272 29.6603 27.5001 29.6603C28.0731 29.6603 28.6225 29.4327 29.0277 29.0275C29.4328 28.6224 29.6604 28.0729 29.6604 27.5C29.6604 26.9271 29.4328 26.3776 29.0277 25.9725C28.6225 25.5673 28.0731 25.3397 27.5001 25.3397Z" fill="white"/>
</svg>
