<svg width="55" height="55" viewBox="0 0 55 55" fill="none" xmlns="http://www.w3.org/2000/svg">
<path d="M53.4875 47.3107C51.3715 43.9099 48.3847 39.6703 45.4437 35.2596C37.5894 21.8579 43.1322 7.13166 41.0238 2.39555C40.1683 0.472078 35.0976 3.87138 32.537 9.3668C31.9564 9.19969 31.3535 9.12342 30.7495 9.14069C30.9863 5.4786 31.1972 2.55597 30.4547 0.886106C29.37 -1.55681 21.4912 4.58027 20.5807 12.6943C17.7573 14.2312 15.6566 15.6842 15.6566 15.6842C15.6566 15.6842 14.2052 17.7849 12.6713 20.6082C4.55579 21.5157 -1.58435 29.3975 0.858569 30.4837C2.53454 31.2293 5.46482 31.0169 9.14065 30.7771C9.13148 31.4187 9.21093 32.01 9.37593 32.5478C3.86065 35.1053 0.441485 40.1958 2.36954 41.0529C7.38371 43.2835 23.6057 36.9264 37.5894 46.999C38.0294 47.3153 38.3212 47.491 38.5076 47.5658C41.7419 49.7551 44.7913 51.8451 47.355 53.4417C51.7473 56.1764 53.408 53.431 53.408 53.431C53.408 53.431 56.2237 51.7046 53.4875 47.3107V47.3107Z" fill="#3E721D"/>
<path d="M53.5165 53.2095C54.0803 52.3768 54.0329 51.257 53.2965 50.5191C53.2965 50.5191 35.1771 26.3618 32.1582 14.2817C29.1378 2.20309 25.4406 5.51684 26.5222 15.0059C27.0188 19.357 29.2982 24.3864 32.337 29.3441L18.6771 15.6842C18.4794 15.4831 18.2438 15.3232 17.984 15.2136C17.7241 15.104 17.4452 15.047 17.1632 15.0458C16.8812 15.0446 16.6017 15.0993 16.341 15.2067C16.0802 15.314 15.8433 15.472 15.6439 15.6714C15.4445 15.8708 15.2865 16.1077 15.1792 16.3685C15.0718 16.6292 15.0171 16.9087 15.0183 17.1907C15.0195 17.4727 15.0765 17.7516 15.1861 18.0115C15.2957 18.2713 15.4556 18.5069 15.6567 18.7046L29.315 32.3645C24.3558 29.3288 19.3295 27.0478 14.9799 26.5513C5.49085 25.4681 2.17557 29.1668 14.2542 32.1857C26.3343 35.2046 50.4915 53.3241 50.4915 53.3241C51.2264 54.0604 52.3478 54.1078 53.1774 53.5471C53.2293 53.5578 53.2767 53.5624 53.2965 53.541C53.3347 53.5028 53.3485 53.4509 53.3852 53.4096C53.4233 53.376 53.4753 53.3623 53.512 53.3241C53.5333 53.3042 53.5272 53.2568 53.5165 53.2095V53.2095Z" fill="#77B255"/>
<path d="M21.0392 10.4974C23.7999 13.2565 23.6685 17.8597 20.7519 20.7793C17.8339 23.6974 14.9907 22.0657 12.2315 19.3065C9.47236 16.5474 7.84069 13.7042 10.7587 10.7861C13.6768 7.86806 18.2815 7.7382 21.0392 10.4974V10.4974Z" fill="#DD2E44"/>
<path d="M19.2775 12.2589C22.0382 15.0196 23.6684 17.8598 20.7518 20.7778C17.8338 23.6959 13.2306 23.8257 10.4714 21.065C7.71226 18.3059 8.99865 12.5462 9.09337 9.11782C9.20643 5.10435 15.9485 8.92837 19.2775 12.2589V12.2589Z" fill="#EA596E"/>
<path d="M34.6272 24.087C37.3895 26.8476 37.2581 31.4493 34.34 34.3674C31.422 37.2854 28.5803 35.6538 25.8211 32.8946C23.062 30.1354 21.4303 27.2922 24.3484 24.3742C27.2664 21.4561 31.8711 21.3278 34.6272 24.087V24.087Z" fill="#DD2E44"/>
<path d="M32.8687 25.8485C35.6279 28.6092 37.258 31.4493 34.3415 34.3674C31.4234 37.2855 26.8202 37.4153 24.0611 34.6546C21.3019 31.8955 22.5883 26.1373 22.6845 22.7089C22.7961 18.6939 29.5366 22.518 32.8687 25.8485Z" fill="#EA596E"/>
<path d="M17.1156 24.6125C20.7349 26.2197 22.1986 30.5342 20.3836 34.2497C18.5701 37.9683 15.2594 37.4351 11.6401 35.8279C8.01925 34.2207 5.46023 32.1505 7.27523 28.4319C9.09023 24.7164 13.4948 23.0068 17.1156 24.6125Z" fill="#F4900C"/>
<path d="M16.0202 26.8552C19.6379 28.4625 22.197 30.5341 20.382 34.2497C18.5685 37.9683 14.1624 39.6779 10.5446 38.0707C6.92378 36.465 6.17975 30.6762 5.09044 27.4633C3.81322 23.7004 11.6507 24.918 16.0202 26.8552Z" fill="#FFCC4D"/>
<path d="M38.0876 10.7128C38.5026 11.6021 38.7383 12.5644 38.7813 13.5448C38.8244 14.5252 38.6738 15.5044 38.3383 16.4266C38.0027 17.3488 37.4888 18.1959 36.8258 18.9194C36.1628 19.6429 35.3638 20.2287 34.4744 20.6434C30.7374 22.385 28.5466 19.716 26.8004 15.9745C25.0556 12.233 24.417 8.83824 28.1555 7.09351C29.9526 6.25655 32.0085 6.16767 33.871 6.8464C35.7336 7.52514 37.2503 8.91591 38.0876 10.7128V10.7128Z" fill="#F4900C"/>
<path d="M35.831 11.7639C37.5742 15.5054 38.2128 18.9001 34.4728 20.6433C32.6758 21.4796 30.6204 21.5682 28.7581 20.8899C26.8958 20.2115 25.3789 18.8216 24.5407 17.0256C22.7975 13.2856 25.8989 8.14611 27.1013 4.83847C28.5145 0.957918 33.7227 7.24931 35.831 11.7639V11.7639Z" fill="#FFCC4D"/>
</svg>
