<svg width="55" height="55" viewBox="0 0 55 55" fill="none" xmlns="http://www.w3.org/2000/svg">
<g clip-path="url(#clip0)">
<path d="M47.3612 0H7.63894C6.01818 0 4.46379 0.643847 3.31773 1.7899C2.17168 2.93596 1.52783 4.49034 1.52783 6.11111V48.8889C1.52783 50.5097 2.17168 52.064 3.31773 53.2101C4.46379 54.3562 6.01818 55 7.63894 55H47.3612C48.9819 55 50.5363 54.3562 51.6824 53.2101C52.8284 52.064 53.4723 50.5097 53.4723 48.8889V6.11111C53.4723 4.49034 52.8284 2.93596 51.6824 1.7899C50.5363 0.643847 48.9819 0 47.3612 0V0Z" fill="#292F33"/>
<path d="M21.3889 16.8056C21.3889 18.4263 20.7451 19.9807 19.599 21.1268C18.453 22.2728 16.8986 22.9167 15.2778 22.9167H13.75C12.1293 22.9167 10.5749 22.2728 9.42882 21.1268C8.28276 19.9807 7.63892 18.4263 7.63892 16.8056V13.75C7.63892 12.1293 8.28276 10.5749 9.42882 9.42882C10.5749 8.28276 12.1293 7.63892 13.75 7.63892H15.2778C16.8986 7.63892 18.453 8.28276 19.599 9.42882C20.7451 10.5749 21.3889 12.1293 21.3889 13.75V16.8056Z" fill="#292F33"/>
<path d="M33.611 41.25C33.611 42.0604 33.2891 42.8376 32.7161 43.4106C32.1431 43.9836 31.3659 44.3055 30.5555 44.3055H7.63881C6.82842 44.3055 6.05123 43.9836 5.4782 43.4106C4.90518 42.8376 4.58325 42.0604 4.58325 41.25V29.0278C4.58325 28.2174 4.90518 27.4402 5.4782 26.8672C6.05123 26.2941 6.82842 25.9722 7.63881 25.9722H30.5555C31.3659 25.9722 32.1431 26.2941 32.7161 26.8672C33.2891 27.4402 33.611 28.2174 33.611 29.0278V41.25ZM50.4166 29.0278C50.4166 28.2174 50.0947 27.4402 49.5216 26.8672C48.9486 26.2941 48.1714 25.9722 47.361 25.9722H39.7221C38.9118 25.9722 38.1346 26.2941 37.5615 26.8672C36.9885 27.4402 36.6666 28.2174 36.6666 29.0278V41.25C36.6666 42.0604 36.9885 42.8376 37.5615 43.4106C38.1346 43.9836 38.9118 44.3055 39.7221 44.3055H47.361C48.1714 44.3055 48.9486 43.9836 49.5216 43.4106C50.0947 42.8376 50.4166 42.0604 50.4166 41.25V29.0278ZM24.4444 6.1111C24.4444 5.30071 24.7663 4.52352 25.3393 3.95049C25.9123 3.37747 26.6895 3.05554 27.4999 3.05554H47.361C48.1714 3.05554 48.9486 3.37747 49.5216 3.95049C50.0947 4.52352 50.4166 5.30071 50.4166 6.1111V19.8611C50.4166 20.6715 50.0947 21.4487 49.5216 22.0217C48.9486 22.5947 48.1714 22.9167 47.361 22.9167H27.4999C26.6895 22.9167 25.9123 22.5947 25.3393 22.0217C24.7663 21.4487 24.4444 20.6715 24.4444 19.8611V6.1111ZM21.3888 19.8611C21.3888 20.6715 21.0669 21.4487 20.4939 22.0217C19.9208 22.5947 19.1436 22.9167 18.3333 22.9167H7.63881C6.82842 22.9167 6.05123 22.5947 5.4782 22.0217C4.90518 21.4487 4.58325 20.6715 4.58325 19.8611V6.1111C4.58325 5.30071 4.90518 4.52352 5.4782 3.95049C6.05123 3.37747 6.82842 3.05554 7.63881 3.05554H18.3333C19.1436 3.05554 19.9208 3.37747 20.4939 3.95049C21.0669 4.52352 21.3888 5.30071 21.3888 6.1111V19.8611Z" fill="#BE1931"/>
<path d="M21.3888 19.8611C21.3888 20.6715 21.0669 21.4487 20.4939 22.0217C19.9208 22.5948 19.1436 22.9167 18.3333 22.9167H7.63881C6.82842 22.9167 6.05123 22.5948 5.4782 22.0217C4.90518 21.4487 4.58325 20.6715 4.58325 19.8611V10.6945C4.58325 9.88409 4.90518 9.1069 5.4782 8.53387C6.05123 7.96084 6.82842 7.63892 7.63881 7.63892H18.3333C19.1436 7.63892 19.9208 7.96084 20.4939 8.53387C21.0669 9.1069 21.3888 9.88409 21.3888 10.6945V19.8611ZM50.4166 19.8611C50.4166 20.6715 50.0947 21.4487 49.5216 22.0217C48.9486 22.5948 48.1714 22.9167 47.361 22.9167H27.4999C26.6895 22.9167 25.9123 22.5948 25.3393 22.0217C24.7663 21.4487 24.4444 20.6715 24.4444 19.8611V10.6945C24.4444 9.88409 24.7663 9.1069 25.3393 8.53387C25.9123 7.96084 26.6895 7.63892 27.4999 7.63892H47.361C48.1714 7.63892 48.9486 7.96084 49.5216 8.53387C50.0947 9.1069 50.4166 9.88409 50.4166 10.6945V19.8611Z" fill="#DD2E44"/>
<path d="M33.611 41.25C33.611 42.0604 33.2891 42.8376 32.7161 43.4106C32.143 43.9836 31.3659 44.3055 30.5555 44.3055H7.63881C6.82842 44.3055 6.05123 43.9836 5.4782 43.4106C4.90518 42.8376 4.58325 42.0604 4.58325 41.25V33.6111C4.58325 32.8007 4.90518 32.0235 5.4782 31.4505C6.05123 30.8775 6.82842 30.5555 7.63881 30.5555H30.5555C31.3659 30.5555 32.143 30.8775 32.7161 31.4505C33.2891 32.0235 33.611 32.8007 33.611 33.6111V41.25Z" fill="#E1E8ED"/>
<path d="M50.4167 41.25C50.4167 42.0604 50.0948 42.8376 49.5218 43.4106C48.9488 43.9836 48.1716 44.3055 47.3612 44.3055H39.7223C38.9119 44.3055 38.1347 43.9836 37.5617 43.4106C36.9887 42.8376 36.6667 42.0604 36.6667 41.25V33.6111C36.6667 32.8007 36.9887 32.0235 37.5617 31.4505C38.1347 30.8775 38.9119 30.5555 39.7223 30.5555H47.3612C48.1716 30.5555 48.9488 30.8775 49.5218 31.4505C50.0948 32.0235 50.4167 32.8007 50.4167 33.6111V41.25Z" fill="#DD2E44"/>
<path d="M41.2728 14.1167C43.2819 16.3747 44.1878 18.8497 43.2926 19.6457L41.6746 21.0833C40.7809 21.8808 38.4266 20.6938 36.4191 18.4357L30.9634 12.3047C28.9559 10.0451 28.0499 7.57015 28.9452 6.77418L30.5631 5.33654C31.4584 4.54056 33.8081 5.72612 35.8156 7.98418L41.2728 14.1167Z" fill="#FFAC33"/>
<path d="M34.0389 16.9217C33.1253 19.2729 31.7823 20.9443 31.0429 20.6556L29.703 20.1346C28.9621 19.8474 29.1026 17.7085 30.0162 15.3588L32.4989 8.97572C33.414 6.626 34.7554 4.95461 35.4964 5.24183L36.8347 5.7628C37.5757 6.05003 37.4367 8.18891 36.5215 10.5386L34.0389 16.9217Z" fill="#FFD983"/>
<path d="M35.3115 17.6245C32.9251 18.4418 30.7816 18.4922 30.525 17.7406L30.059 16.3793C29.8008 15.6277 31.5287 14.3566 33.9121 13.5407L40.3929 11.3254C42.7793 10.5096 44.9212 10.4592 45.1794 11.2109L45.6439 12.5706C45.9021 13.3238 44.1757 14.5949 41.7893 15.4092L35.3115 17.6245Z" fill="#FFD983"/>
<path d="M9.84191 12.0282C10.4118 5.75518 17.3387 10.56 20.7426 13.6309C18.6954 15.8996 9.15288 19.635 9.84191 12.0282Z" fill="#5C913B"/>
<path d="M10.0589 11.8922C15.7713 9.23846 15.0899 17.6412 14.1411 22.1253C11.1528 21.4928 3.13195 15.1128 10.0589 11.8922Z" fill="#5C913B"/>
<path d="M7.63889 12.2222C5.80556 9.77776 9.16667 4.58331 16.8056 4.58331C18.3333 6.11109 12.2222 18.3333 7.63889 12.2222Z" fill="#77B255"/>
<path d="M9.16658 41.25C8.86414 41.2507 8.56831 41.1615 8.31666 40.9937C8.065 40.826 7.86886 40.5872 7.75312 40.3078C7.63739 40.0284 7.60729 39.7209 7.66663 39.4243C7.72598 39.1277 7.8721 38.8555 8.08645 38.6421L9.61422 37.1143C9.90069 36.8279 10.2892 36.6669 10.6944 36.6669C11.0995 36.6669 11.488 36.8279 11.7745 37.1143C12.061 37.4008 12.2219 37.7893 12.2219 38.1945C12.2219 38.5996 12.061 38.9881 11.7745 39.2746L10.2467 40.8024C10.105 40.9445 9.93668 41.0572 9.75132 41.134C9.56595 41.2108 9.36724 41.2502 9.16658 41.25ZM28.137 42.0124C27.9363 42.0126 27.7376 41.9732 27.5523 41.8963C27.3669 41.8195 27.1985 41.7068 27.0569 41.5648L25.5291 40.037C25.3872 39.895 25.2747 39.7265 25.198 39.5411C25.1213 39.3557 25.0818 39.157 25.0819 38.9563C25.082 38.7556 25.1216 38.5569 25.1984 38.3716C25.2753 38.1862 25.3879 38.0178 25.5298 37.8759C25.6718 37.7341 25.8403 37.6216 26.0257 37.5449C26.2111 37.4681 26.4099 37.4287 26.6105 37.4288C26.8112 37.4288 27.0099 37.4684 27.1953 37.5453C27.3806 37.6221 27.549 37.7348 27.6909 37.8767L29.2187 39.4045C29.4331 39.6179 29.5793 39.8903 29.6386 40.187C29.6979 40.4838 29.6676 40.7914 29.5517 41.0709C29.4358 41.3504 29.2394 41.5891 28.9875 41.7567C28.7356 41.9244 28.4396 42.0134 28.137 42.0124ZM18.7152 35.4567C18.3256 35.4567 17.9345 35.307 17.6351 35.0106L16.9338 34.3109C16.7918 34.1691 16.679 34.0008 16.602 33.8155C16.525 33.6302 16.4853 33.4315 16.4851 33.2308C16.4849 33.0301 16.5242 32.8314 16.6008 32.6459C16.6774 32.4604 16.7898 32.2919 16.9315 32.1498C17.0733 32.0078 17.2416 31.895 17.4269 31.8181C17.6122 31.7411 17.8109 31.7013 18.0116 31.7011C18.2122 31.7009 18.411 31.7402 18.5965 31.8168C18.7819 31.8934 18.9505 32.0058 19.0926 32.1475L19.7938 32.8473C20.0078 33.0607 20.1537 33.3329 20.213 33.6294C20.2723 33.9258 20.2423 34.2332 20.1268 34.5125C20.0113 34.7919 19.8155 35.0307 19.5643 35.1988C19.313 35.3669 19.0175 35.4566 18.7152 35.4567Z" fill="#B2C2CC"/>
<path d="M49.1165 35.7684C49.3733 36.0766 49.5668 36.4324 49.6861 36.8154C49.8053 37.1985 49.8479 37.6013 49.8115 38.0008C49.775 38.4003 49.6602 38.7888 49.4736 39.1439C49.2869 39.499 49.0322 39.8139 48.7238 40.0706L45.2023 43.0054C44.8941 43.2622 44.5383 43.4558 44.1552 43.5751C43.7722 43.6943 43.3694 43.7369 42.9698 43.7005C42.5703 43.664 42.1819 43.5492 41.8267 43.3625C41.4716 43.1759 41.1567 42.9212 40.9001 42.6128L37.9652 39.0913C37.7084 38.7831 37.5149 38.4272 37.3956 38.0442C37.2764 37.6611 37.2337 37.2583 37.2702 36.8588C37.3067 36.4593 37.4215 36.0709 37.6081 35.7157C37.7947 35.3606 38.0495 35.0457 38.3579 34.7891L41.8794 31.8542C42.1876 31.5974 42.5434 31.4038 42.9265 31.2846C43.3095 31.1653 43.7123 31.1227 44.1118 31.1592C44.5114 31.1956 44.8998 31.3105 45.2549 31.4971C45.6101 31.6837 45.925 31.9385 46.1816 32.2468L49.1165 35.7684Z" fill="#B26304"/>
<path d="M49.1165 32.7128C49.3733 33.021 49.5668 33.3768 49.6861 33.7599C49.8053 34.143 49.8479 34.5457 49.8115 34.9453C49.775 35.3448 49.6602 35.7332 49.4736 36.0884C49.2869 36.4435 49.0322 36.7584 48.7238 37.015L45.2023 39.9499C44.8941 40.2067 44.5383 40.4003 44.1552 40.5195C43.7722 40.6388 43.3694 40.6814 42.9698 40.6449C42.5703 40.6084 42.1819 40.4936 41.8267 40.307C41.4716 40.1204 41.1567 39.8656 40.9001 39.5573L37.9652 36.0357C37.7084 35.7275 37.5149 35.3717 37.3956 34.9887C37.2764 34.6056 37.2337 34.2028 37.2702 33.8033C37.3067 33.4038 37.4215 33.0153 37.6081 32.6602C37.7947 32.305 38.0495 31.9902 38.3579 31.7335L41.8794 28.7987C42.1876 28.5419 42.5434 28.3483 42.9265 28.229C43.3095 28.1098 43.7123 28.0672 44.1118 28.1036C44.5114 28.1401 44.8998 28.2549 45.2549 28.4415C45.6101 28.6282 45.925 28.8829 46.1816 29.1913L49.1165 32.7128Z" fill="#F4900C"/>
<path d="M18.3334 41.25C19.1772 41.25 19.8612 40.566 19.8612 39.7222C19.8612 38.8785 19.1772 38.1945 18.3334 38.1945C17.4897 38.1945 16.8057 38.8785 16.8057 39.7222C16.8057 40.566 17.4897 41.25 18.3334 41.25Z" fill="#CCD6DD"/>
<path d="M30.5556 35.1389C31.3994 35.1389 32.0834 34.4549 32.0834 33.6111C32.0834 32.7673 31.3994 32.0833 30.5556 32.0833C29.7118 32.0833 29.0278 32.7673 29.0278 33.6111C29.0278 34.4549 29.7118 35.1389 30.5556 35.1389Z" fill="#CCD6DD"/>
</g>
<defs>
<clipPath id="clip0">
<rect width="55" height="55" fill="white"/>
</clipPath>
</defs>
</svg>
