<svg width="55" height="55" viewBox="0 0 55 55" fill="none" xmlns="http://www.w3.org/2000/svg">
<g clip-path="url(#clip0)">
<path d="M36.9524 14.7537L45.5966 6.11566L48.8889 9.41108L40.2448 18.0507L36.9524 14.7537Z" fill="#CCD6DD"/>
<path d="M21.3889 55C33.2016 55 42.7778 45.4239 42.7778 33.6111C42.7778 21.7984 33.2016 12.2222 21.3889 12.2222C9.57613 12.2222 0 21.7984 0 33.6111C0 45.4239 9.57613 55 21.3889 55Z" fill="#31373D"/>
<path d="M29.0278 17.3281L37.672 8.68542L46.3146 17.3296L37.6705 25.9722L29.0278 17.3281Z" fill="#31373D"/>
<path d="M48.8889 12.2222C52.264 12.2222 55.0001 9.48619 55.0001 6.11111C55.0001 2.73604 52.264 0 48.8889 0C45.5139 0 42.7778 2.73604 42.7778 6.11111C42.7778 9.48619 45.5139 12.2222 48.8889 12.2222Z" fill="#F18F26"/>
<path d="M48.8888 9.16665C50.5763 9.16665 51.9444 7.79864 51.9444 6.1111C51.9444 4.42356 50.5763 3.05554 48.8888 3.05554C47.2013 3.05554 45.8333 4.42356 45.8333 6.1111C45.8333 7.79864 47.2013 9.16665 48.8888 9.16665Z" fill="#FDCB58"/>
</g>
<defs>
<clipPath id="clip0">
<rect width="55" height="55" fill="white"/>
</clipPath>
</defs>
</svg>
