<svg width="55" height="55" viewBox="0 0 55 55" fill="none" xmlns="http://www.w3.org/2000/svg">
<path d="M27.5 55C42.6878 55 55 42.6878 55 27.5C55 12.3122 42.6878 0 27.5 0C12.3122 0 0 12.3122 0 27.5C0 42.6878 12.3122 55 27.5 55Z" fill="#F4900C"/>
<path d="M55 25.9722H41.279C41.5662 17.5603 44.2475 11.7715 48.5879 9.86028C47.9048 9.05367 47.1764 8.28651 46.4062 7.5625C42.0826 9.97333 38.5458 15.6185 38.2265 25.9707H29.0278V0H25.9722V25.9722H16.7735C16.4557 15.62 12.9189 9.97486 8.59528 7.56403C7.8244 8.28675 7.09596 9.05345 6.41361 9.86028C10.754 11.7715 13.4338 17.5603 13.721 25.9722H0V29.0278H13.721C13.4338 37.4397 10.754 43.2285 6.41361 45.1397C7.09347 45.951 7.82833 46.7087 8.59528 47.4375C12.9204 45.0267 16.4557 39.3815 16.7735 29.0278H25.9722V55H29.0278V29.0278H38.2265C38.5458 39.38 42.0811 45.0251 46.4062 47.4375C47.1732 46.7103 47.9096 45.951 48.5879 45.1397C44.2475 43.2285 41.5678 37.4397 41.279 29.0278H55V25.9722Z" fill="#231F20"/>
</svg>
