<svg width="55" height="55" viewBox="0 0 55 55" fill="none" xmlns="http://www.w3.org/2000/svg">
<path d="M16.0081 34.2818C16.0081 34.2818 17.0806 37.7667 15.4932 46.4933C15.2091 48.0593 14.7905 49.6589 14.5781 50.9697C11.8938 50.9697 11.7502 54.0283 12.32 54.0283H15.5192C17.5618 54.0283 20.0582 48.9347 21.4073 41.8657C22.7563 34.7967 16.0081 34.2818 16.0081 34.2818V34.2818ZM35.9334 39.9376C35.9334 39.9376 39.4045 41.8015 39.2762 46.1725C39.2257 47.9004 38.8957 49.3671 38.7338 50.7925C35.9349 50.7925 35.9242 53.8251 36.74 53.8251H39.5756C40.9857 53.8251 44.1605 49.0004 44.738 42.7014C45.317 36.4039 35.9334 39.9376 35.9334 39.9376V39.9376Z" fill="#292F33"/>
<path d="M55 12.9051C55 5.38541 48.6734 1.52777 41.25 1.52777C40.8448 1.52777 40.4562 1.68873 40.1697 1.97525C39.8832 2.26176 39.7222 2.65036 39.7222 3.05555C39.7222 3.46074 39.8832 3.84934 40.1697 4.13585C40.4562 4.42236 40.8448 4.58333 41.25 4.58333C44.0061 4.58333 51.5121 6.01027 51.5121 12.9051C51.5121 17.3067 49.118 21.2499 45.7523 22.0443C45.5018 21.9328 45.2252 21.8854 44.9747 21.751C33.9151 15.7667 24.4154 23.129 21.7127 21.3079C19.0361 19.5021 20.8893 16.335 17.3983 13.2978C16.8941 10.4851 15.759 6.45791 14.6575 6.45791C13.8187 6.45791 12.7248 9.2461 11.9991 12.0435C11.0962 9.9336 9.91678 7.83291 9.15747 7.83291C8.17969 7.83291 7.20497 11.3055 6.72219 14.303C4.15553 16.0554 2.28247 18.5946 2.28247 21.5829C2.28247 25.7079 8.46997 26.7117 10.5325 26.7942C12.595 26.8767 15.1509 32.2361 16.0096 34.543C17.9071 41.2149 19.143 47.8332 20.1315 51.6282C17.6122 51.6282 17.3754 54.8533 18.0721 54.8533C19.1614 54.8533 21.0558 54.8487 21.4714 54.8533C23.5812 54.8747 24.5666 47.6636 24.5666 41.334C24.5666 41.0101 24.5498 40.3761 24.5498 40.3761C24.5498 40.3761 27.4984 41.1476 33.7746 40.0583C37.5084 39.4105 41.4593 41.3554 42.5532 44.8907C43.3583 47.494 44.6905 49.94 45.4071 51.7412C42.9794 51.7412 43.0466 54.8533 43.7509 54.8533C44.9533 54.8533 46.5025 54.8747 47.0861 54.8533C49.3289 54.7693 48.0684 43.2819 48.6597 39.4274C49.2509 35.5728 50.5954 30.9054 48.3098 25.9875C53.2537 23.2772 55 17.5771 55 12.9051Z" fill="#292F33"/>
<path d="M9.15747 19.3539C9.91686 19.3539 10.5325 18.7383 10.5325 17.9789C10.5325 17.2195 9.91686 16.6039 9.15747 16.6039C8.39808 16.6039 7.78247 17.2195 7.78247 17.9789C7.78247 18.7383 8.39808 19.3539 9.15747 19.3539Z" fill="#C3C914"/>
<path d="M4.55891 19.6472C3.5246 20.2935 3.5246 22.3621 3.00821 22.3621C2.49183 22.3621 1.45752 21.146 1.45752 19.6472C1.45599 18.1485 5.83002 18.8528 4.55891 19.6472ZM10.0497 21.9129C9.9871 21.9527 9.91224 21.9679 9.8328 21.9527C9.8053 21.9466 7.4678 21.5845 5.9446 22.1757C5.74752 22.2521 5.42363 22.1406 5.31363 21.8839C5.20363 21.6272 5.34877 21.3263 5.54585 21.2499C7.74585 20.3806 9.91071 20.8924 10.0284 20.9168C10.2407 20.9611 10.3263 21.2071 10.3156 21.4852C10.3095 21.6593 10.1567 21.8442 10.0497 21.9129ZM9.32863 25.4864C9.29138 25.4933 9.25313 25.4926 9.21614 25.4845C9.17915 25.4764 9.14415 25.4609 9.11322 25.4391C9.0903 25.4238 7.07974 24.171 5.44349 24.1359C5.23266 24.1313 4.97752 23.9006 4.97752 23.6149C4.97752 23.3307 5.2296 23.1031 5.44196 23.1061C7.81308 23.1428 9.60363 24.4674 9.70294 24.5377C9.88169 24.6629 9.86183 24.9272 9.74419 25.1854C9.66933 25.3489 9.45544 25.4635 9.32863 25.4864V25.4864Z" fill="#66757F"/>
<path d="M11.9992 12.0404C11.9992 12.0404 12.5675 11.9808 13.3115 12.0908C13.6431 11.3881 14.2053 10.7357 14.2053 10.7357C14.2053 10.7357 14.6346 11.7563 14.795 12.537C14.8332 12.7203 15.1281 12.7157 15.287 12.8257C15.287 12.8257 15.345 7.53501 13.9685 6.96515C13.97 6.9621 12.815 8.68238 11.9992 12.0404V12.0404ZM6.7207 14.3C6.7207 14.3 7.30737 13.8921 8.06973 13.4231C8.40126 12.4697 8.93751 11.3865 8.93751 11.3865C8.93751 11.3865 9.40654 12.3063 9.46459 12.624C9.78543 12.4499 9.78542 12.4621 10.0803 12.3338C10.0803 12.3338 9.90612 8.84126 8.40126 8.47307C8.40126 8.47307 7.28293 10.5692 6.7207 14.3V14.3Z" fill="#7F676D"/>
<path d="M28.1874 36.1228C24.1403 36.9936 24.5513 40.3731 24.5513 40.3731C24.5513 40.3731 27.4999 41.1446 33.776 40.0553C35.3807 39.7872 37.0287 39.9872 38.5228 40.6313C36.0676 35.9761 31.9304 35.3161 28.1874 36.1228Z" fill="#66757F"/>
<path d="M9.12989 16.7781C9.12989 16.7781 9.63864 17.3082 9.61725 17.9667C9.59587 18.6236 9.23531 19.2393 9.23531 19.2393C9.23531 19.2393 8.7892 18.7092 8.74795 17.9774C8.7067 17.244 9.12989 16.7781 9.12989 16.7781Z" fill="#292F33"/>
</svg>
