<svg width="55" height="55" viewBox="0 0 55 55" fill="none" xmlns="http://www.w3.org/2000/svg">
<path d="M47.361 8.73584H38.1943V14.847H44.3054C44.3054 14.847 47.361 14.847 47.361 17.9025V36.2358C47.361 39.2914 44.3054 39.2914 44.3054 39.2914H38.1943V45.4025H47.361C50.7313 45.4025 53.4721 42.6617 53.4721 39.2914V14.847C53.4721 11.4767 50.7313 8.73584 47.361 8.73584Z" fill="#FFAC33"/>
<path d="M41.2499 9.16663H4.58325V48.8888C4.58325 50.5096 5.2271 52.064 6.37315 53.2101C7.51921 54.3561 9.0736 55 10.6944 55H35.1388C36.7596 55 38.314 54.3561 39.46 53.2101C40.6061 52.064 41.2499 50.5096 41.2499 48.8888V9.16663Z" fill="#FFCC4D"/>
<path d="M12.986 48.8889C12.5808 48.8889 12.1922 48.728 11.9057 48.4414C11.6192 48.1549 11.4583 47.7663 11.4583 47.3611V22.9167C11.4583 22.5115 11.6192 22.1229 11.9057 21.8364C12.1922 21.5499 12.5808 21.3889 12.986 21.3889C13.3912 21.3889 13.7798 21.5499 14.0663 21.8364C14.3528 22.1229 14.5138 22.5115 14.5138 22.9167V47.3611C14.5138 47.7663 14.3528 48.1549 14.0663 48.4414C13.7798 48.728 13.3912 48.8889 12.986 48.8889ZM22.9166 48.8889C22.5114 48.8889 22.1228 48.728 21.8363 48.4414C21.5498 48.1549 21.3888 47.7663 21.3888 47.3611V22.9167C21.3888 22.5115 21.5498 22.1229 21.8363 21.8364C22.1228 21.5499 22.5114 21.3889 22.9166 21.3889C23.3218 21.3889 23.7104 21.5499 23.9969 21.8364C24.2834 22.1229 24.4444 22.5115 24.4444 22.9167V47.3611C24.4444 47.7663 24.2834 48.1549 23.9969 48.4414C23.7104 48.728 23.3218 48.8889 22.9166 48.8889ZM32.8471 48.8889C32.4419 48.8889 32.0534 48.728 31.7668 48.4414C31.4803 48.1549 31.3194 47.7663 31.3194 47.3611V22.9167C31.3194 22.5115 31.4803 22.1229 31.7668 21.8364C32.0534 21.5499 32.4419 21.3889 32.8471 21.3889C33.2523 21.3889 33.6409 21.5499 33.9274 21.8364C34.214 22.1229 34.3749 22.5115 34.3749 22.9167V47.3611C34.3749 47.7663 34.214 48.1549 33.9274 48.4414C33.6409 48.728 33.2523 48.8889 32.8471 48.8889Z" fill="#F4900C"/>
<path d="M4.58325 7.63892V19.0132C5.48464 19.5388 6.52047 19.8611 7.63881 19.8611C8.85269 19.8601 10.0388 19.4976 11.0458 18.8198C12.0528 18.142 12.8352 17.1796 13.2931 16.0554C13.8278 16.5168 14.5169 16.8056 15.2777 16.8056C16.312 16.8056 17.2226 16.2892 17.7756 15.5024C18.3249 16.3689 19.0841 17.0828 19.9828 17.5777C20.8815 18.0726 21.8906 18.3325 22.9166 18.3334C23.8586 18.3313 24.7873 18.1104 25.6294 17.688C26.4714 17.2657 27.2038 16.6534 27.7688 15.8996C28.0467 16.6157 28.5343 17.2311 29.1678 17.6654C29.8014 18.0996 30.5513 18.3325 31.3194 18.3334C32.7692 18.3334 34.0159 17.516 34.6621 16.3259L34.8867 15.7743C35.6646 16.2085 36.5396 16.4392 37.4305 16.445C38.9292 16.445 40.2798 15.8247 41.2499 14.8317V7.63892H4.58325Z" fill="#FFAC33"/>
<path d="M36.6667 0H6.11117C4.89559 0 3.7298 0.482885 2.87026 1.34243C2.01072 2.20197 1.52783 3.36776 1.52783 4.58333V10.6944C1.53081 12.1091 2.02446 13.4788 2.9246 14.5701C3.82473 15.6614 5.07559 16.4066 6.46381 16.6787C7.85204 16.9507 9.29164 16.7327 10.5371 16.0618C11.7825 15.3909 12.7566 14.3087 13.2932 12.9999C13.828 13.4612 14.517 13.75 15.2778 13.75C16.3121 13.75 17.2227 13.2336 17.7757 12.4468C18.325 13.3134 19.0842 14.0272 19.9829 14.5221C20.8816 15.017 21.8908 15.2769 22.9167 15.2778C23.8588 15.2757 24.7874 15.0548 25.6295 14.6324C26.4715 14.2101 27.204 13.5978 27.7689 12.844C28.0468 13.5601 28.5344 14.1755 29.168 14.6098C29.8015 15.0441 30.5514 15.2769 31.3195 15.2778C32.7694 15.2778 34.016 14.4604 34.6623 13.2703C35.2703 13.5682 35.9441 13.75 36.6667 13.75C37.8823 13.75 39.0481 13.2671 39.9076 12.4076C40.7672 11.548 41.2501 10.3822 41.2501 9.16667V4.58333C41.2501 3.36776 40.7672 2.20197 39.9076 1.34243C39.0481 0.482885 37.8823 0 36.6667 0V0Z" fill="#EEEEEE"/>
</svg>
