<svg width="55" height="55" viewBox="0 0 55 55" fill="none" xmlns="http://www.w3.org/2000/svg">
<path d="M12.3581 1.52777C12.3581 1.52777 21.3078 2.46888 25.4053 7.73055C30.3034 14.0204 26.7666 19.8947 26.7666 19.8947C26.7666 19.8947 19.395 19.2454 16.0263 15.0715C11.1328 9.00777 12.3581 1.52777 12.3581 1.52777Z" fill="#5C913B"/>
<path d="M33.4598 1.52777C33.4598 1.52777 34.8547 8.58152 31.9229 12.9403C28.4197 18.15 23.2512 16.8208 23.2512 16.8208C23.2512 16.8208 22.0091 11.0397 24.3069 7.49221C27.6466 2.33749 33.4598 1.52777 33.4598 1.52777Z" fill="#77B255"/>
<path d="M36.2648 26.8323C42.1003 26.8323 46.831 22.7098 46.831 17.6244C46.831 12.539 42.1003 8.4165 36.2648 8.4165C30.4293 8.4165 25.6987 12.539 25.6987 17.6244C25.6987 22.7098 30.4293 26.8323 36.2648 26.8323Z" fill="#5864B7"/>
<path d="M29.5473 25.9661C29.5473 24.666 29.3578 23.4606 29.0278 22.3407C30.9905 21.6898 33.0452 21.3591 35.113 21.3614C38.5703 21.3614 41.7664 22.2017 44.3912 23.7478C42.4998 26.1968 39.2639 27.5 35.5851 27.5C33.3301 27.5 31.2553 26.9943 29.5427 26.0502C29.5427 26.0211 29.5473 25.9952 29.5473 25.9661V25.9661Z" fill="#334372"/>
<path d="M33.246 25.2969C33.246 25.7094 33.22 26.1082 33.1849 26.5024C28.8521 25.5368 25.6973 22.4675 25.6973 17.6244C25.6973 16.4358 25.8944 15.3588 26.2457 14.3871C30.4196 16.2907 33.246 20.0994 33.246 25.2969V25.2969Z" fill="#334372"/>
<path d="M16.6405 37.5726C24.1433 37.5726 30.2255 32.0766 30.2255 25.2969C30.2255 18.5173 24.1433 13.0212 16.6405 13.0212C9.13775 13.0212 3.05554 18.5173 3.05554 25.2969C3.05554 32.0766 9.13775 37.5726 16.6405 37.5726Z" fill="#5864B7"/>
<path d="M16.6406 36.8057C16.6406 28.7421 22.3698 23.4942 29.9124 22.4354C30.1141 23.3353 30.2272 24.2886 30.2272 25.2954C30.2272 32.9099 24.1649 37.5543 16.6803 37.5696C16.6681 37.316 16.6406 37.0669 16.6406 36.8057Z" fill="#334372"/>
<path d="M30.0533 34.7867C31.1186 32.9417 30.5012 30.5909 28.6744 29.5362C26.8476 28.4815 24.5031 29.1222 23.4379 30.9673C22.3726 32.8124 22.99 35.1631 24.8168 36.2178C26.6436 37.2725 28.9881 36.6318 30.0533 34.7867Z" fill="#AA8DD8"/>
<path d="M34.2832 52.9176C43.1934 52.9176 50.4166 46.3908 50.4166 38.3396C50.4166 30.2884 43.1934 23.7615 34.2832 23.7615C25.373 23.7615 18.1499 30.2884 18.1499 38.3396C18.1499 46.3908 25.373 52.9176 34.2832 52.9176Z" fill="#5864B7"/>
<path d="M26.0381 30.1675C27.1106 28.2914 28.6338 29.2661 30.4396 28.0806C31.891 27.1272 32.0881 25.6758 33.6158 25.6758C35.1436 25.6758 36.0664 26.947 36.9281 27.2647C38.9554 28.0118 40.1654 26.9164 41.6932 28.4442C43.221 29.972 40.5138 31.3485 40.2861 32.5279C39.9974 34.0282 41.875 35.1145 40.5581 35.8401C38.6682 36.8836 38.1915 34.9907 35.139 35.1389C32.8443 35.2504 31.9368 37.4733 29.94 36.792C27.8943 36.0953 30.6657 34.1153 29.4404 32.8442C27.9417 31.2889 25.3124 31.4386 26.0381 30.1675ZM9.4296 17.9606C10.1095 16.3778 11.0567 17.2899 12.3813 16.1868C13.4446 15.2992 13.469 14.132 14.679 13.9929C15.889 13.8539 16.7354 14.7782 17.4474 14.9508C19.1218 15.3588 20.3196 14.8286 21.3295 15.4535C22.7946 16.361 21.1186 17.4579 21.0453 18.4128C20.9521 19.6274 22.0781 20.7213 21.1003 21.4164C19.6963 22.4156 18.8208 21.1506 16.4161 21.5432C14.6088 21.8396 14.4743 23.1275 12.8304 22.7685C11.1468 22.4018 12.5997 20.7595 11.515 19.8642C10.1874 18.7703 8.96821 19.0331 9.4296 17.9606V17.9606ZM37.2627 10.204C38.5322 9.75181 38.5124 10.78 39.8492 10.9526C40.9232 11.0917 41.6061 10.4836 42.3303 11.1054C43.0529 11.7257 42.9735 12.702 43.2531 13.2031C43.9085 14.3795 44.8511 14.7858 45.0283 15.6964C45.2881 17.0195 43.7664 16.6406 43.1797 17.1081C42.4342 17.7008 42.4036 18.9276 41.487 18.7367C40.167 18.4617 40.4282 17.2883 38.9233 16.1181C37.7928 15.2381 36.9831 15.8476 36.3139 14.714C35.6295 13.5529 37.3436 13.5147 37.2795 12.4147C37.2015 11.0688 36.404 10.5096 37.2627 10.204V10.204Z" fill="#334372"/>
<path d="M34.6301 34.4804C37.8009 34.4804 40.3714 32.8476 40.3714 30.8336C40.3714 28.8195 37.8009 27.1868 34.6301 27.1868C31.4592 27.1868 28.8887 28.8195 28.8887 30.8336C28.8887 32.8476 31.4592 34.4804 34.6301 34.4804Z" fill="#253356"/>
<path d="M15.973 20.9856C18.3507 20.9856 20.2783 19.7605 20.2783 18.2493C20.2783 16.7381 18.3507 15.5131 15.973 15.5131C13.5953 15.5131 11.6677 16.7381 11.6677 18.2493C11.6677 19.7605 13.5953 20.9856 15.973 20.9856Z" fill="#253356"/>
<path d="M42.7953 16.5506C43.6294 15.8473 43.4083 14.2131 42.3014 12.9003C41.1946 11.5876 39.6211 11.0936 38.7871 11.7969C37.953 12.5001 38.1741 14.1344 39.281 15.4471C40.3878 16.7598 41.9613 17.2539 42.7953 16.5506Z" fill="#253356"/>
</svg>
