<svg width="55" height="55" viewBox="0 0 55 55" fill="none" xmlns="http://www.w3.org/2000/svg">
<path d="M43.2927 49.7491L39.3526 54.4577C38.5092 55.3025 36.6667 54.4684 36.6667 53.625V18.3349C36.6667 17.4916 40.2906 11.4584 44.3056 11.4584L44.2629 46.608C44.2629 48.3405 44.1208 48.6063 43.2927 49.7491Z" fill="#E3A919"/>
<path d="M39.7222 15.9714H13.75L14.0464 15.4397L19.4639 11.4583C20.2064 10.8793 20.7335 10.6945 21.5768 10.6945H43.5203C43.8075 10.6945 44.3056 11.1177 44.0458 11.4125L39.7222 15.9714Z" fill="#FFD983"/>
<path d="M38.1944 55.0001H15.2778C14.8726 55.0001 14.484 54.8391 14.1975 54.5526C13.911 54.2661 13.75 53.8775 13.75 53.4723V15.9714C13.75 15.9714 14.4344 15.2778 15.2778 15.2778H38.1944C39.0378 15.2778 39.7222 15.9714 39.7222 15.9714V53.4723C39.7222 53.8775 39.5613 54.2661 39.2747 54.5526C38.9882 54.8391 38.5996 55.0001 38.1944 55.0001Z" fill="#FFCC4D"/>
<path d="M22.9166 45.8333C25.4479 45.8333 27.4999 43.7813 27.4999 41.25C27.4999 38.7187 25.4479 36.6666 22.9166 36.6666C20.3853 36.6666 18.3333 38.7187 18.3333 41.25C18.3333 43.7813 20.3853 45.8333 22.9166 45.8333Z" fill="#F4900C"/>
<path d="M22.9168 38.1944C26.2919 38.1944 29.0279 35.4584 29.0279 32.0833C29.0279 28.7082 26.2919 25.9722 22.9168 25.9722C19.5417 25.9722 16.8057 28.7082 16.8057 32.0833C16.8057 35.4584 19.5417 38.1944 22.9168 38.1944Z" fill="#EA596E"/>
<path d="M29.7917 42.7778C33.5887 42.7778 36.6667 39.6998 36.6667 35.9028C36.6667 32.1059 33.5887 29.0278 29.7917 29.0278C25.9948 29.0278 22.9167 32.1059 22.9167 35.9028C22.9167 39.6998 25.9948 42.7778 29.7917 42.7778Z" fill="#FFE8B6"/>
<path d="M29.7916 39.7223C31.901 39.7223 33.6111 38.0122 33.6111 35.9028C33.6111 33.7934 31.901 32.0834 29.7916 32.0834C27.6822 32.0834 25.9722 33.7934 25.9722 35.9028C25.9722 38.0122 27.6822 39.7223 29.7916 39.7223Z" fill="#FFCC4D"/>
<path d="M35.1373 12.9312C35.1373 12.9312 34.8165 13.5896 33.66 13.5896C32.5035 13.5896 32.0818 12.9312 32.0818 12.9312V6.63366C32.0818 3.5888 32.8946 1.57825 34.4987 0.658525C36.0341 -0.221475 38.0523 0.0504693 40.4907 1.47589C42.4371 2.61102 47.245 6.01644 47.3596 6.11116C47.3596 6.11116 47.6116 6.97436 46.8966 7.79172C46.1816 8.60908 45.4223 8.47464 45.4223 8.47464C45.3948 8.45325 40.6847 5.12727 38.9507 4.11283C37.6047 3.32602 36.5307 3.16102 36.0418 3.44672C35.6155 3.69116 35.1373 4.55589 35.1373 6.63366V12.9312V12.9312Z" fill="#CCD6DD"/>
<path d="M38.8574 0.672224C37.1402 -0.00916453 35.6766 -0.0168034 34.4987 0.656947C33.2902 1.35056 32.5324 2.66445 32.2314 4.57111L35.2488 5.13181C35.4138 4.11736 35.7407 3.62084 36.0432 3.44667C36.3794 3.24959 37.0058 3.28625 37.7941 3.57195L38.8574 0.672224Z" fill="#99AAB5"/>
<path d="M39.6168 16.8056H14.5139C14.0938 16.8056 13.75 16.4619 13.75 16.0417C13.75 15.6216 14.0938 15.2778 14.5139 15.2778H39.6168C40.0369 15.2778 40.3807 15.6216 40.3807 16.0417C40.3807 16.4619 40.0369 16.8056 39.6168 16.8056Z" fill="#FFE8B6"/>
<path d="M44.1651 11.9106L40.2907 16.5489C40.0416 16.856 39.5711 16.8896 39.2457 16.6253C38.9187 16.361 38.8561 15.8935 39.1036 15.5864L42.978 10.9481C43.227 10.641 43.6976 10.6074 44.023 10.8717C44.35 11.1375 44.4126 11.6035 44.1651 11.9106V11.9106Z" fill="#FFE8B6"/>
</svg>
