<svg width="55" height="55" viewBox="0 0 55 55" fill="none" xmlns="http://www.w3.org/2000/svg">
<path d="M50.9652 20.2491C53.156 14.96 54.1124 2.62776 52.8932 1.9097C51.8177 1.27415 44.2751 3.56581 40.1516 6.80623C36.488 4.44429 32.2132 3.05554 27.5001 3.05554C22.7869 3.05554 18.5121 4.44581 14.8485 6.80623C10.7251 3.56581 3.18089 1.27415 2.10533 1.9097C0.887693 2.62776 1.84408 14.9615 4.03492 20.2491C2.39218 24.2356 1.54067 28.5035 1.52783 32.8151C1.52783 48.0761 3.05561 55 27.5001 55C51.9445 55 53.4723 48.0761 53.4723 32.8151C53.4723 28.4518 52.5709 24.1648 50.9652 20.2491Z" fill="#C1694F"/>
<path d="M50.2302 18.5732C51.6495 13.6048 51.8818 6.79706 51.0308 6.29442C50.4029 5.92317 46.7836 7.2615 43.3782 9.3072C46.2061 11.8479 48.5313 15.015 50.2302 18.5732ZM11.6218 9.3072C8.21482 7.2615 4.59552 5.92317 3.9676 6.29442C3.11663 6.79706 3.34885 13.6064 4.76968 18.5747C6.46857 15.015 8.79385 11.8494 11.6218 9.3072Z" fill="#662113"/>
<path d="M11.6875 44.3056C11.6875 44.3056 6.1249 39.7222 4.59712 26.7361C4.23962 23.7019 7.18823 23.7157 7.65267 26.7361C9.18198 36.6667 17.3541 42.7778 21.3889 45.8333C24.8341 48.4428 11.6875 44.3056 11.6875 44.3056ZM43.3125 44.3056C43.3125 44.3056 48.8752 39.7222 50.403 26.7361C50.7605 23.7019 47.8134 23.7157 47.3474 26.7361C45.8181 36.6667 37.646 42.7778 33.6112 45.8333C30.166 48.4428 43.3125 44.3056 43.3125 44.3056Z" fill="#E1E8ED"/>
<path d="M44.3055 44.3055C44.3055 45.9922 38.4693 48.8889 27.4999 48.8889C16.5304 48.8889 10.6943 45.9922 10.6943 44.3055C10.6943 42.6189 16.5304 45.8333 27.4999 45.8333C38.4693 45.8333 44.3055 42.6189 44.3055 44.3055Z" fill="black"/>
<path d="M42.7777 35.3298C42.7777 42.185 38.0462 49.6528 27.4999 49.6528C16.9522 49.6528 12.2222 42.185 12.2222 35.3298C12.2222 28.4747 16.9522 26.7361 27.4999 26.7361C38.0462 26.7361 42.7777 28.4747 42.7777 35.3298Z" fill="#662113"/>
<path d="M22.9166 37.5834C22.9166 40.4204 22.3971 41.25 20.6249 41.25C18.8527 41.25 18.3333 40.4204 18.3333 37.5834C18.3333 34.7478 18.8527 33.9182 20.6249 33.9182C22.3971 33.9182 22.9166 34.7463 22.9166 37.5834ZM36.6666 37.5834C36.6666 40.4204 36.1471 41.25 34.3749 41.25C32.6027 41.25 32.0833 40.4204 32.0833 37.5834C32.0833 34.7478 32.6027 33.9182 34.3749 33.9182C36.1471 33.9182 36.6666 34.7463 36.6666 37.5834Z" fill="#C1694F"/>
<path d="M19.8612 22.9197C19.8611 23.3211 19.7819 23.7185 19.6282 24.0892C19.4745 24.46 19.2493 24.7969 18.9655 25.0806C18.6816 25.3643 18.3446 25.5894 17.9738 25.7429C17.6029 25.8964 17.2055 25.9754 16.8041 25.9753C16.4027 25.9752 16.0053 25.896 15.6345 25.7423C15.2638 25.5886 14.9269 25.3634 14.6432 25.0795C14.3594 24.7957 14.1344 24.4587 13.9809 24.0878C13.8274 23.717 13.7484 23.3195 13.7485 22.9182C13.7487 22.1076 14.0709 21.3303 14.6443 20.7572C15.2176 20.1842 15.995 19.8624 16.8056 19.8626C17.6162 19.8628 18.3935 20.185 18.9665 20.7583C19.5396 21.3316 19.8614 22.1091 19.8612 22.9197ZM41.2501 22.9197C41.25 23.3211 41.1708 23.7185 41.0171 24.0892C40.8634 24.46 40.6382 24.7969 40.3543 25.0806C40.0705 25.3643 39.7335 25.5894 39.3626 25.7429C38.9918 25.8964 38.5943 25.9754 38.193 25.9753C37.7916 25.9752 37.3942 25.896 37.0234 25.7423C36.6527 25.5886 36.3158 25.3634 36.0321 25.0795C35.7483 24.7957 35.5233 24.4587 35.3698 24.0878C35.2163 23.717 35.1373 23.3195 35.1374 22.9182C35.1376 22.1076 35.4598 21.3303 36.0331 20.7572C36.6065 20.1842 37.3839 19.8624 38.1945 19.8626C39.0051 19.8628 39.7824 20.185 40.3554 20.7583C40.9285 21.3316 41.2503 22.1091 41.2501 22.9197Z" fill="#292F33"/>
</svg>
