<svg width="55" height="55" viewBox="0 0 55 55" fill="none" xmlns="http://www.w3.org/2000/svg">
<path d="M35.1389 32.0834C35.1389 41.7878 30.5555 47.3611 27.5 47.3611C24.4444 47.3611 19.8611 41.7878 19.8611 32.0834C19.8611 22.3789 23.2818 21.3889 27.5 21.3889C31.7197 21.3889 35.1389 22.3789 35.1389 32.0834Z" fill="#66757F"/>
<path d="M27.5 22.9167C30.8751 22.9167 33.6111 20.1806 33.6111 16.8056C33.6111 13.4305 30.8751 10.6945 27.5 10.6945C24.125 10.6945 21.3889 13.4305 21.3889 16.8056C21.3889 20.1806 24.125 22.9167 27.5 22.9167Z" fill="#66757F"/>
<path d="M21.389 16.8055C18.3334 9.16664 22.9167 6.11108 22.9167 6.11108C22.9167 6.11108 25.9723 7.63886 25.9723 12.2222C25.9723 16.8055 21.389 16.8055 21.389 16.8055Z" fill="#66757F"/>
<path d="M22.4095 15.1311C21.224 11.3773 22.2277 9.17885 23.0252 8.13385C23.6593 8.81982 24.4445 10.0955 24.4445 12.2222C24.4445 14.1594 23.3155 14.8714 22.4095 15.1311Z" fill="#546066"/>
<path d="M33.6111 16.8055C36.6667 9.16664 32.0833 6.11108 32.0833 6.11108C32.0833 6.11108 29.0278 7.63886 29.0278 12.2222C29.0278 16.8055 33.6111 16.8055 33.6111 16.8055ZM24.4689 21.3889C21.9939 23.1565 9.19111 24.4444 10.7189 13.75C10.9358 12.2375 9.19111 12.2222 7.66334 13.75C3.08 18.3333 -1.50333 25.7186 1.55222 44.3055C6.13556 36.6666 10.7189 38.1944 12.2467 45.8333C16.83 39.7222 21.4133 42.7778 24.4689 45.8333C29.0522 41.25 24.4689 21.3889 24.4689 21.3889ZM30.4838 21.3889C32.9588 23.1565 45.7615 24.4444 44.2338 13.75C44.0168 12.2375 45.7615 12.2222 47.2893 13.75C51.8726 18.3333 56.456 25.7186 53.4004 44.3055C48.8171 36.6666 44.2338 38.1944 42.706 45.8333C38.1226 39.7222 33.5393 42.7778 30.4838 45.8333C25.9004 41.25 30.4838 21.3889 30.4838 21.3889V21.3889Z" fill="#66757F"/>
<path d="M24.4445 18.3333C25.2883 18.3333 25.9723 17.6493 25.9723 16.8055C25.9723 15.9618 25.2883 15.2778 24.4445 15.2778C23.6008 15.2778 22.9167 15.9618 22.9167 16.8055C22.9167 17.6493 23.6008 18.3333 24.4445 18.3333Z" fill="#292F33"/>
<path d="M30.5556 18.3333C31.3994 18.3333 32.0834 17.6493 32.0834 16.8055C32.0834 15.9618 31.3994 15.2778 30.5556 15.2778C29.7118 15.2778 29.0278 15.9618 29.0278 16.8055C29.0278 17.6493 29.7118 18.3333 30.5556 18.3333Z" fill="#292F33"/>
<path d="M32.5907 15.1311C33.7747 11.3773 32.7709 9.17885 31.975 8.13385C31.3409 8.81982 30.5557 10.0955 30.5557 12.2222C30.5557 14.1594 31.6847 14.8714 32.5907 15.1311Z" fill="#546066"/>
<path d="M12.216 41.1125C13.5788 37.0013 13.0914 31.9642 10.6944 25.9722C8.42255 20.2904 8.68533 16.3029 8.9695 14.6315C8.89464 14.6942 8.82283 14.7507 8.74339 14.8301C4.60922 18.9658 0.728663 25.2557 2.53602 40.3883C4.48547 38.2815 6.22102 37.756 7.46769 37.756C9.40033 37.756 11.032 38.9522 12.216 41.1125Z" fill="#99AAB5"/>
<path d="M10.4379 20.2431C10.4088 20.1972 10.3752 20.1544 10.3462 20.1101C10.6945 24.4444 12.8334 25.9738 13.7501 30.5556C14.6484 35.0472 14.4773 38.9874 13.8845 42.1117C15.1663 41.2393 16.5215 40.7764 17.9423 40.7764C19.8734 40.7764 21.8351 41.5983 23.893 43.2621C21.389 29.0278 13.7501 25.9722 10.4379 20.2431ZM42.784 41.1125C41.4197 37.0013 41.9101 31.9642 44.3056 25.9722C46.5774 20.2904 46.3147 16.3029 46.0305 14.6315C46.1054 14.6942 46.1787 14.7507 46.2566 14.8301C50.3908 18.9658 54.2713 25.2557 52.464 40.3883C50.5161 38.2815 48.779 37.756 47.5338 37.756C45.5997 37.756 43.968 38.9522 42.784 41.1125V41.1125Z" fill="#99AAB5"/>
<path d="M44.5621 20.243L44.6553 20.1101C44.3054 24.4444 42.1666 25.9737 41.2499 30.5555C40.3516 35.0472 40.5211 38.9873 41.1154 42.1116C39.8321 41.2393 38.4785 40.7764 37.0577 40.7764C35.1266 40.7764 33.1649 41.5983 31.107 43.262C33.611 29.0277 41.2499 25.9722 44.5621 20.243ZM28.551 20.023C28.2719 20.3006 27.8943 20.4564 27.5006 20.4564C27.107 20.4564 26.7294 20.3006 26.4503 20.023L25.5795 19.1507C25.002 18.5732 25.1975 18.0995 26.0149 18.0995H28.9864C29.8038 18.0995 30.0009 18.5716 29.4218 19.1507L28.551 20.023Z" fill="#99AAB5"/>
</svg>
