<svg width="516" height="150" viewBox="0 0 516 150" fill="none" xmlns="http://www.w3.org/2000/svg">
<g filter="url(#filter0_d)">
<rect x="2" y="53" width="508" height="91" rx="45.5" fill="white"/>
<circle cx="249.5" cy="64.5" r="62.5" fill="white"/>
<path d="M107.082 79.688L93.4744 106.008V119H83.8984V106.008L70.2904 79.688H81.1544L88.7704 96.152L96.3304 79.688H107.082ZM129.533 119.392C125.837 119.392 122.439 118.533 119.341 116.816C116.279 115.099 113.834 112.709 112.005 109.648C110.213 106.549 109.317 103.077 109.317 99.232C109.317 95.3867 110.213 91.9333 112.005 88.872C113.834 85.8107 116.279 83.4213 119.341 81.704C122.439 79.9867 125.837 79.128 129.533 79.128C133.229 79.128 136.607 79.9867 139.669 81.704C142.767 83.4213 145.194 85.8107 146.949 88.872C148.741 91.9333 149.637 95.3867 149.637 99.232C149.637 103.077 148.741 106.549 146.949 109.648C145.157 112.709 142.73 115.099 139.669 116.816C136.607 118.533 133.229 119.392 129.533 119.392ZM129.533 110.656C132.669 110.656 135.17 109.611 137.037 107.52C138.941 105.429 139.893 102.667 139.893 99.232C139.893 95.76 138.941 92.9973 137.037 90.944C135.17 88.8533 132.669 87.808 129.533 87.808C126.359 87.808 123.821 88.8347 121.917 90.888C120.05 92.9413 119.117 95.7227 119.117 99.232C119.117 102.704 120.05 105.485 121.917 107.576C123.821 109.629 126.359 110.656 129.533 110.656ZM164.372 79.688V103.208C164.372 105.56 164.951 107.371 166.108 108.64C167.266 109.909 168.964 110.544 171.204 110.544C173.444 110.544 175.162 109.909 176.356 108.64C177.551 107.371 178.148 105.56 178.148 103.208V79.688H187.724V103.152C187.724 106.661 186.978 109.629 185.484 112.056C183.991 114.483 181.975 116.312 179.436 117.544C176.935 118.776 174.135 119.392 171.036 119.392C167.938 119.392 165.156 118.795 162.692 117.6C160.266 116.368 158.343 114.539 156.924 112.112C155.506 109.648 154.796 106.661 154.796 103.152V79.688H164.372ZM367.216 79.688L356.968 119H345.376L339.104 93.128L332.608 119H321.016L311.048 79.688H321.296L326.952 108.304L333.952 79.688H344.48L351.2 108.304L356.912 79.688H367.216ZM381.595 79.688V119H372.019V79.688H381.595ZM423.703 119H414.127L398.111 94.752V119H388.535V79.688H398.111L414.127 104.048V79.688H423.703V119ZM443.244 78.288L442.124 105.112H434.004L432.884 78.288H443.244ZM438.204 119.448C436.524 119.448 435.143 118.963 434.06 117.992C433.015 116.984 432.492 115.752 432.492 114.296C432.492 112.803 433.015 111.552 434.06 110.544C435.143 109.536 436.524 109.032 438.204 109.032C439.847 109.032 441.191 109.536 442.236 110.544C443.319 111.552 443.86 112.803 443.86 114.296C443.86 115.752 443.319 116.984 442.236 117.992C441.191 118.963 439.847 119.448 438.204 119.448Z" fill="#E67A7A"/>
<g clip-path="url(#clip0)">
<path d="M229.739 99.9078C227.883 98.0409 228.851 98.5672 224.375 97.3619C222.344 96.8141 220.559 95.7614 218.944 94.5002L209.256 118.399C208.318 120.713 210.07 123.227 212.551 123.132L223.802 122.701L231.541 130.925C233.249 132.738 236.248 132.173 237.185 129.859L248.3 102.441C245.985 103.739 243.416 104.499 240.76 104.499C236.596 104.499 232.684 102.868 229.739 99.9078ZM290.743 118.399L281.055 94.5002C279.441 95.7635 277.655 96.8141 275.625 97.3619C271.125 98.5737 272.112 98.0452 270.261 99.9078C267.316 102.868 263.402 104.499 259.237 104.499C256.581 104.499 254.012 103.736 251.697 102.441L262.812 129.859C263.75 132.173 266.75 132.738 268.456 130.925L276.197 122.701L287.448 123.132C289.93 123.227 291.681 120.711 290.743 118.399ZM265.161 95.0459C268.424 91.7051 268.798 91.993 273.444 90.719C276.411 89.9047 278.73 87.5307 279.524 84.4928C281.121 78.3912 280.707 79.1282 285.065 74.6637C287.237 72.4401 288.085 69.1981 287.29 66.1602C285.695 60.0629 285.693 60.9137 287.29 54.81C288.085 51.7721 287.237 48.5301 285.065 46.3065C280.707 41.842 281.121 42.5768 279.524 36.4774C278.73 33.4395 276.411 31.0655 273.444 30.2512C267.491 28.6162 268.208 29.0438 263.846 24.5772C261.674 22.3535 258.507 21.4834 255.541 22.2977C249.59 23.9305 250.42 23.9326 244.458 22.2977C241.492 21.4834 238.325 22.3514 236.154 24.5772C231.795 29.0416 232.513 28.6162 226.557 30.2512C223.591 31.0655 221.272 33.4395 220.478 36.4774C218.882 42.5768 219.295 41.842 214.936 46.3065C212.764 48.5301 211.915 51.7721 212.711 54.81C214.306 60.903 214.308 60.0522 212.711 66.158C211.917 69.1959 212.764 72.4379 214.936 74.6637C219.295 79.1282 218.88 78.3912 220.478 84.4928C221.272 87.5307 223.591 89.9047 226.557 90.719C231.336 92.0295 231.693 91.8233 234.838 95.0459C237.663 97.9399 242.064 98.4576 245.46 96.2963C246.818 95.4291 248.393 94.9686 250.001 94.9686C251.609 94.9686 253.184 95.4291 254.542 96.2963C257.935 98.4576 262.336 97.9399 265.161 95.0459ZM229.854 59.803C229.854 48.4098 238.874 39.1737 250 39.1737C261.125 39.1737 270.145 48.4098 270.145 59.803C270.145 71.1961 261.125 80.4323 250 80.4323C238.874 80.4323 229.854 71.1961 229.854 59.803Z" fill="#F7D068"/>
</g>
</g>
<defs>
<filter id="filter0_d" x="0" y="0" width="516" height="150" filterUnits="userSpaceOnUse" color-interpolation-filters="sRGB">
<feFlood flood-opacity="0" result="BackgroundImageFix"/>
<feColorMatrix in="SourceAlpha" type="matrix" values="0 0 0 0 0 0 0 0 0 0 0 0 0 0 0 0 0 0 127 0"/>
<feOffset dx="2" dy="2"/>
<feGaussianBlur stdDeviation="2"/>
<feColorMatrix type="matrix" values="0 0 0 0 0 0 0 0 0 0 0 0 0 0 0 0 0 0 0.25 0"/>
<feBlend mode="normal" in2="BackgroundImageFix" result="effect1_dropShadow"/>
<feBlend mode="normal" in="SourceGraphic" in2="effect1_dropShadow" result="shape"/>
</filter>
<clipPath id="clip0">
<rect width="82" height="110" fill="white" transform="translate(209 22)"/>
</clipPath>
</defs>
</svg>
